<svg id="Layer_1" data-name="Layer 1" xmlns="http://www.w3.org/2000/svg" viewBox="0 0 661.72 856.73"><defs><style>.cls-1{fill:#fff;}</style></defs><title>mouse</title><g id="CxfL2h"><path class="cls-1" d="M575,103c0.08,2.16.22,4.32,0.23,6.49q0.19,71.74.36,143.49c0,1.92.22,3.85,0.34,5.81h37.91V142.93h39.49v38.53h38.24a51.42,51.42,0,0,1,.55,5.38q0,130.65-.07,261.29c0,1.75-.15,3.5-0.26,5.69H653.69c-0.14,1.92-.34,3.38-0.34,4.85,0,31.64-.11,63.28,0,94.92,0,6,.68,11.95,1,17.92L614,569.73v77.95H302.58V570H263.74c0-11.58,0-22.55,0-33.52,0-13.16,0-26.33-.23-39.49,0-1.51-1.5-4.29-2.35-4.31-11.78-.29-23.58-0.19-36.23-0.19v78.33h38.27v115.9c23,2.46,380.83,2,390.86-.77,0-34.12,0-68.6,0-103.08,0-3.81.13-7.62,0.19-11.45,1.79-.15,3.58-0.43,5.38-0.43,10.64,0,21.27,0,32.89,0V454.27h38.23V181.55c-13.72,0-26.51,0-39.27,0,0.21-4.26.55-8.51,0.59-12.77,0.09-8.41,0-16.82,0-25.62-2.88,0-5,0-7.15,0-9-.12-18-0.35-26.93-0.32-3.66,0-5-1.56-5-5.07,0-7.81-.12-15.63-0.18-23.44,0-3.42,0-6.84,0-10.66-2.9,0-5,0-7.19,0l-70.81-.52V65.73c-4.12-.2-8.06-0.53-12-0.56Q513.45,64.8,464,64.49a29.11,29.11,0,0,1-4.71-.8c-0.46-7.42-1-14.83-1.35-22.26-0.21-5.08,0-10.17,0-16H380.1V-129H341.7V219.89H380.4v-155c2.2-.11,3.68-0.23,5.16-0.24q33.73-.19,67.46-0.38c2.13,0,4.26-.43,6.38-0.65a51.07,51.07,0,0,0-.58,5.43q-0.28,72.93-.49,145.85c0,1.6,0,3.21,0,4.84h38.86V103.23h6.4ZM186.41,219.76a51.44,51.44,0,0,1-.66-5.75c-0.07-10.61,0-21.22,0-32.17H69V298.06c11.16,0,21.95-.2,32.73.09,4.76,0.13,6.29-1.47,6.25-6.23-0.21-22-.11-44-0.1-65.94,0-1.76.18-3.51,0.3-5.68,13.3,0,26.09.08,38.89,0,13.14-.11,26.29-0.4,39.43-0.6v39.89h38.22v38.21h38.32V-129.34H224.87c0,2.51,0,4.49,0,6.47Q224.67,44.55,224.45,212c0,1.67.3,3.42-.13,5-0.31,1.1-1.61,2.73-2.48,2.75C210,219.85,198.24,219.77,186.41,219.76Zm-0.57,117H146.62V298.29c-12.19,0-23.79-.07-35.39.12-1,0-2.79,1.76-2.81,2.73-0.19,11.89-.13,23.78-0.13,36.59h37.65V415.4h39.48v77.5c11.54,0,22.32-.11,33.08.06,4.13,0.07,5.46-1.62,5.47-5.6,0.07-23,.31-45.95.47-68.92a29,29,0,0,0-.57-3.89h-38V336.76ZM264-130.6h76.69v-37.85H264v37.85Z" transform="translate(-69.03 168.46)"/><path d="M654.27,571.4c-0.07,3.81-.21,7.62-0.21,11.42,0,34.48,0,69,0,103.08-10,2.75-367.89,3.23-390.86.77V570.79H224.92V492.46c12.65,0,24.45-.09,36.23.19,0.85,0,2.32,2.79,2.35,4.31,0.23,13.16.21,26.33,0.23,39.49,0,11,0,21.94,0,33.52h38.84v77.71H614V569.73l40.38,1.79Z" transform="translate(-69.03 168.46)"/><path d="M186.44,219.74c11.8,0,23.6.11,35.4,0,0.87,0,2.17-1.64,2.48-2.75,0.43-1.55.13-3.3,0.13-5q0.21-167.43.42-334.86c0-2,0-4,0-6.47h38.19V297.78H224.74V259.57H186.52V219.67Z" transform="translate(-69.03 168.46)"/><path d="M459.41,63.61c-2.13.23-4.26,0.65-6.39,0.66q-33.73.24-67.46,0.38c-1.48,0-3,.13-5.16.24v155H341.7V-129h38.4V25.42H458c0,5.85-.17,10.94,0,16,0.31,7.42.89,14.84,1.35,22.26Z" transform="translate(-69.03 168.46)"/><path d="M654.37,571.52c-0.36-6-1-11.95-1-17.92-0.09-31.64,0-63.28,0-94.92,0-1.46.2-2.92,0.34-4.85h38.09c0.1-2.2.26-3.95,0.26-5.69q0.06-130.65.07-261.29c0-1.79-.36-3.59-0.54-5.39l-0.11.1h39.29V454.27H692.52V570.93c-11.62,0-22.25,0-32.89,0-1.79,0-3.58.28-5.37,0.44Z" transform="translate(-69.03 168.46)"/><path d="M459.34,63.69a29.11,29.11,0,0,0,4.71.8q49.41,0.38,98.81.68c3.95,0,7.89.36,12,.56v37.4L575,103l-71.41.23h-6.4V219.74H458.32c0-1.63,0-3.24,0-4.84q0.23-72.93.49-145.85a49.94,49.94,0,0,1,.59-5.43Z" transform="translate(-69.03 168.46)"/><path d="M574.87,103.13l70.81,0.52c2.15,0,4.29,0,7.19,0,0,3.82,0,7.24,0,10.66,0.06,7.81.22,15.63,0.18,23.44,0,3.51,1.3,5.08,5,5.07,9,0,18,.21,26.93.32,2.13,0,4.27,0,7.15,0,0,8.8.07,17.21,0,25.62,0,4.26-.39,8.51-0.61,12.78l0.1-.09H653.32V142.93H613.83V258.78H575.93c-0.12-2-.33-3.88-0.34-5.81q-0.2-71.74-.36-143.49c0-2.16-.15-4.32-0.23-6.48Z" transform="translate(-69.03 168.46)"/><path d="M185.85,336.76v77.78h38a29,29,0,0,1,.57,3.89c-0.15,23-.4,45.95-0.47,68.92,0,4-1.34,5.67-5.47,5.6-10.77-.17-21.54-0.06-33.08-0.06V415.4H145.93V337.73H108.28c0-12.81-.07-24.7.13-36.59,0-1,1.82-2.71,2.81-2.73,11.6-.19,23.2-0.12,35.39-0.12v38.47h39.23Z" transform="translate(-69.03 168.46)"/><path d="M186.52,219.67c-13.14.21-26.28,0.5-39.43,0.6-12.79.1-25.59,0-38.89,0-0.12,2.16-.3,3.92-0.3,5.68,0,22-.11,44,0.1,65.94,0,4.76-1.48,6.36-6.25,6.23C91,297.86,80.19,298.06,69,298.06V181.83H185.72c0,11,0,21.56,0,32.17a48.2,48.2,0,0,0,.67,5.74Z" transform="translate(-69.03 168.46)"/><path d="M264-130.6v-37.85h76.69v37.85H264Z" transform="translate(-69.03 168.46)"/></g></svg>