<svg id="Layer_1" data-name="Layer 1" xmlns="http://www.w3.org/2000/svg" viewBox="0 0 121.59 88.19"><defs><style>.cls-1{fill:#06251c;}.cls-2{fill:#4e888c;}.cls-3{fill:#65b891;}</style></defs><title>B1_Bed</title><path class="cls-1" d="M3.41,0H118.19a3.41,3.41,0,0,1,3.41,3.41V39.3a0,0,0,0,1,0,0H0a0,0,0,0,1,0,0V3.41A3.41,3.41,0,0,1,3.41,0Z"/><rect class="cls-2" x="7.22" y="27.07" width="44.35" height="7.92" rx="3.96" ry="3.96"/><rect class="cls-2" x="62.45" y="27.07" width="44.35" height="7.92" rx="3.96" ry="3.96"/><rect class="cls-3" x="0.73" y="31.03" width="120.13" height="16.01" rx="8.01" ry="8.01"/><path class="cls-1" d="M573.45,710.65a6,6,0,0,1-6-6v-30.9H469.86v30.9a6,6,0,0,1-12,0v-42.9H579.45v42.9A6,6,0,0,1,573.45,710.65Z" transform="translate(-457.86 -622.46)"/></svg>