<svg id="Layer_1" data-name="Layer 1" xmlns="http://www.w3.org/2000/svg" viewBox="0 0 38.5 70.3"><defs><style>.cls-1{fill:#06251c;}.cls-2{fill:#4e888c;}.cls-3{fill:#65b891;}</style></defs><title>B1_Lamp</title><rect class="cls-1" x="1.5" y="42.94" width="35.5" height="1"/><rect class="cls-2" x="6.76" y="27.9" width="24.98" height="3.29"/><path class="cls-1" d="M631.84,703.89h-1.21a0.89,0.89,0,0,1-.89-0.89V667.22a0.89,0.89,0,0,0-.89-0.89H598.13a0.89,0.89,0,0,0-.89.89V703a0.89,0.89,0,0,1-.89.89h-1.21a0.89,0.89,0,0,1-.89-0.89V664.22a0.89,0.89,0,0,1,.89-0.89h36.72a0.89,0.89,0,0,1,.89.89V703A0.89,0.89,0,0,1,631.84,703.89Z" transform="translate(-594.23 -633.59)"/><rect class="cls-2" x="17.75" y="9.24" width="3" height="19.45"/><polygon class="cls-3" points="26.18 0 19.4 0 19.11 0 12.32 0 5.25 15.93 19.11 15.93 19.4 15.93 33.25 15.93 26.18 0"/></svg>