<svg id="Layer_1" data-name="Layer 1" xmlns="http://www.w3.org/2000/svg" viewBox="0 0 31.65 87.64"><defs><style>.cls-1{fill:#4e888c;}.cls-2{fill:#65b891;}.cls-3{fill:#06251c;}</style></defs><title>B2_Lamp</title><path class="cls-1" d="M2,31.19H29.68a2,2,0,0,1,2,2V87.64a0,0,0,0,1,0,0H0a0,0,0,0,1,0,0V33.16A2,2,0,0,1,2,31.19Z"/><rect class="cls-2" x="4.19" y="37.84" width="23.27" height="43.15"/><circle class="cls-3" cx="23.53" cy="59.16" r="1.28"/><rect class="cls-3" x="3.35" y="27.9" width="24.98" height="3.29"/><rect class="cls-3" x="14.34" y="9.24" width="3" height="19.45"/><polygon class="cls-2" points="22.76 0 15.98 0 15.69 0 8.91 0 1.84 15.93 15.69 15.93 15.98 15.93 29.84 15.93 22.76 0"/></svg>