<svg id="Layer_1" data-name="Layer 1" xmlns="http://www.w3.org/2000/svg" viewBox="0 0 82.69 121.61"><defs><style>.cls-1{fill:#06251c;}.cls-2{fill:#65b891;}.cls-3{fill:#4e888c;}</style></defs><title>B2_Table</title><rect class="cls-1" x="29.61" y="116.3" width="23.5" height="5.31"/><rect class="cls-1" x="39.88" y="21.89" width="2.96" height="97.06"/><path class="cls-1" d="M998.66,583a6.33,6.33,0,1,1-6.33,6.33A6.34,6.34,0,0,1,998.66,583Zm0,12.37a6,6,0,1,0-6-6A6,6,0,0,0,998.66,595.39Z" transform="translate(-957.3 -583.03)"/><path class="cls-2" d="M999.48,606.43l17.73-17.73a1.15,1.15,0,0,0-.82-2H980.93a1.15,1.15,0,0,0-.82,2l17.73,17.73A1.15,1.15,0,0,0,999.48,606.43Z" transform="translate(-957.3 -583.03)"/><polygon class="cls-1" points="82.69 120.87 79.69 120.87 79.69 63.41 3 63.41 3 120.87 0 120.87 0 60.41 82.69 60.41 82.69 120.87"/><rect class="cls-1" x="1.5" y="61.91" width="79.69" height="12.7"/><rect class="cls-3" x="3.08" y="62.69" width="34.06" height="9.15"/><rect class="cls-3" x="45.56" y="62.69" width="34.06" height="9.15"/><circle class="cls-1" cx="20.11" cy="67.26" r="1.28"/><circle class="cls-1" cx="62.41" cy="67.26" r="1.28"/></svg>