<svg id="Layer_1" data-name="Layer 1" xmlns="http://www.w3.org/2000/svg" viewBox="0 0 70.75 123.44"><defs><style>.cls-1{fill:#06251c;}.cls-2{fill:#4e888c;}.cls-3{fill:#65b891;}</style></defs><title>heater</title><path class="cls-1" d="M22.94,0H47.8A22.94,22.94,0,0,1,70.75,22.94v100.5a0,0,0,0,1,0,0H0a0,0,0,0,1,0,0V22.94A22.94,22.94,0,0,1,22.94,0Z"/><circle class="cls-2" cx="35.37" cy="50.37" r="18.61"/><path class="cls-3" d="M597.4,215.27a20.11,20.11,0,1,1,20.11-20.11A20.13,20.13,0,0,1,597.4,215.27Zm0-37.21a17.11,17.11,0,1,0,17.11,17.11A17.13,17.13,0,0,0,597.4,178.06Z" transform="translate(-562.02 -144.79)"/><rect class="cls-2" x="14.08" y="87.7" width="42.6" height="26.59" rx="2.08" ry="2.08"/><path class="cls-1" d="M580.59,257.32a0.5,0.5,0,0,1-.5-0.5V234.75a0.5,0.5,0,1,1,1,0v22.07A0.5,0.5,0,0,1,580.59,257.32Z" transform="translate(-562.02 -144.79)"/><path class="cls-1" d="M585.47,257.32a0.5,0.5,0,0,1-.5-0.5V234.75a0.5,0.5,0,1,1,1,0v22.07A0.5,0.5,0,0,1,585.47,257.32Z" transform="translate(-562.02 -144.79)"/><path class="cls-1" d="M590.34,257.32a0.5,0.5,0,0,1-.5-0.5V234.75a0.5,0.5,0,1,1,1,0v22.07A0.5,0.5,0,0,1,590.34,257.32Z" transform="translate(-562.02 -144.79)"/><path class="cls-1" d="M595.22,257.32a0.5,0.5,0,0,1-.5-0.5V234.75a0.5,0.5,0,1,1,1,0v22.07A0.5,0.5,0,0,1,595.22,257.32Z" transform="translate(-562.02 -144.79)"/><path class="cls-1" d="M600.1,257.32a0.5,0.5,0,0,1-.5-0.5V234.75a0.5,0.5,0,1,1,1,0v22.07A0.5,0.5,0,0,1,600.1,257.32Z" transform="translate(-562.02 -144.79)"/><path class="cls-1" d="M605,257.32a0.5,0.5,0,0,1-.5-0.5V234.75a0.5,0.5,0,1,1,1,0v22.07A0.5,0.5,0,0,1,605,257.32Z" transform="translate(-562.02 -144.79)"/><path class="cls-1" d="M609.85,257.32a0.5,0.5,0,0,1-.5-0.5V234.75a0.5,0.5,0,1,1,1,0v22.07A0.5,0.5,0,0,1,609.85,257.32Z" transform="translate(-562.02 -144.79)"/><path class="cls-1" d="M614.73,257.32a0.5,0.5,0,0,1-.5-0.5V234.75a0.5,0.5,0,1,1,1,0v22.07A0.5,0.5,0,0,1,614.73,257.32Z" transform="translate(-562.02 -144.79)"/></svg>