<svg id="Layer_1" data-name="Layer 1" xmlns="http://www.w3.org/2000/svg" viewBox="0 0 84.42 95.9"><defs><style>.cls-1{fill:#65b891;}.cls-2{fill:#06251c;}.cls-3{fill:#4e888c;}</style></defs><title>Kit_Oven</title><line class="cls-1" x1="19.67" y1="1.08" x2="6.15" y2="1.08"/><path class="cls-2" d="M553.18,828.85h15.2a0.91,0.91,0,0,0,0-1.66h-15.2A0.91,0.91,0,0,0,553.18,828.85Z" transform="translate(-520.53 -826.73)"/><rect class="cls-2" y="5.42" width="84.42" height="90.49" rx="3.93" ry="3.93"/><rect class="cls-1" x="535.55" y="853.24" width="54.37" height="61.55" rx="7.64" ry="7.64" transform="translate(926.23 -505.45) rotate(90)"/><rect class="cls-3" x="21.3" y="10.02" width="41.82" height="13.87" rx="1.32" ry="1.32"/><path class="cls-2" d="M562.74,849.24a0.16,0.16,0,0,1-.16-0.16v-10.8a0.16,0.16,0,0,1,.32,0v10.8A0.16,0.16,0,0,1,562.74,849.24Z" transform="translate(-520.53 -826.73)"/><path class="cls-2" d="M559.66,849.24a0.16,0.16,0,0,1-.16-0.16v-10.8a0.16,0.16,0,0,1,.32,0v10.8A0.16,0.16,0,0,1,559.66,849.24Z" transform="translate(-520.53 -826.73)"/><path class="cls-2" d="M556.58,849.24a0.16,0.16,0,0,1-.16-0.16v-10.8a0.16,0.16,0,0,1,.32,0v10.8A0.16,0.16,0,0,1,556.58,849.24Z" transform="translate(-520.53 -826.73)"/><path class="cls-2" d="M553.5,849.24a0.16,0.16,0,0,1-.16-0.16v-10.8a0.16,0.16,0,1,1,.32,0v10.8A0.16,0.16,0,0,1,553.5,849.24Z" transform="translate(-520.53 -826.73)"/><path class="cls-2" d="M550.42,849.24a0.16,0.16,0,0,1-.16-0.16v-10.8a0.16,0.16,0,1,1,.32,0v10.8A0.16,0.16,0,0,1,550.42,849.24Z" transform="translate(-520.53 -826.73)"/><path class="cls-2" d="M547.34,849.24a0.16,0.16,0,0,1-.16-0.16v-10.8a0.16,0.16,0,0,1,.32,0v10.8A0.16,0.16,0,0,1,547.34,849.24Z" transform="translate(-520.53 -826.73)"/><path class="cls-2" d="M544.26,849.24a0.16,0.16,0,0,1-.16-0.16v-10.8a0.16,0.16,0,0,1,.32,0v10.8A0.16,0.16,0,0,1,544.26,849.24Z" transform="translate(-520.53 -826.73)"/><path class="cls-2" d="M563.3,839.06H543.14a0.16,0.16,0,0,1,0-.32H563.3A0.16,0.16,0,0,1,563.3,839.06Z" transform="translate(-520.53 -826.73)"/><path class="cls-2" d="M563.3,840.68H543.14a0.16,0.16,0,1,1,0-.32H563.3A0.16,0.16,0,0,1,563.3,840.68Z" transform="translate(-520.53 -826.73)"/><path class="cls-2" d="M563.3,842.3H543.14a0.16,0.16,0,0,1,0-.32H563.3A0.16,0.16,0,0,1,563.3,842.3Z" transform="translate(-520.53 -826.73)"/><path class="cls-2" d="M563.3,843.92H543.14a0.16,0.16,0,1,1,0-.32H563.3A0.16,0.16,0,0,1,563.3,843.92Z" transform="translate(-520.53 -826.73)"/><path class="cls-2" d="M563.3,845.53H543.14a0.16,0.16,0,0,1,0-.32H563.3A0.16,0.16,0,0,1,563.3,845.53Z" transform="translate(-520.53 -826.73)"/><path class="cls-2" d="M563.3,847.15H543.14a0.16,0.16,0,0,1,0-.32H563.3A0.16,0.16,0,0,1,563.3,847.15Z" transform="translate(-520.53 -826.73)"/><path class="cls-2" d="M563.3,848.77H543.14a0.16,0.16,0,1,1,0-.32H563.3A0.16,0.16,0,0,1,563.3,848.77Z" transform="translate(-520.53 -826.73)"/><rect class="cls-1" x="568.64" y="836.16" width="9.71" height="15.2" rx="3.11" ry="3.11" transform="translate(896.72 -556.47) rotate(90)"/><path class="cls-1" d="M553.54,826.73a0.57,0.57,0,0,1,.35.73c-0.54,2.71-2.17,4.68-4.09,4.68H528c-1.92,0-3.55-2-4.09-4.68a0.57,0.57,0,0,1,.35-0.73h29.29Z" transform="translate(-520.53 -826.73)"/></svg>