<svg id="Layer_1" data-name="Layer 1" xmlns="http://www.w3.org/2000/svg" viewBox="0 0 122.19 101.9"><defs><style>.cls-1{fill:#06251c;}.cls-2{fill:#4e888c;}.cls-3{fill:#65b891;}</style></defs><title>Lau_Iron</title><path class="cls-1" d="M251.5,707.15a2.14,2.14,0,0,1-1.52-3.66l72-72a2.14,2.14,0,0,1,3,3l-72,72A2.14,2.14,0,0,1,251.5,707.15Z" transform="translate(-225.15 -605.24)"/><path class="cls-1" d="M323.52,707.15a2.14,2.14,0,0,1-1.52-.63l-72-72a2.14,2.14,0,0,1,3-3l72,72A2.14,2.14,0,0,1,323.52,707.15Z" transform="translate(-225.15 -605.24)"/><path class="cls-2" d="M344.33,636H228.15a3,3,0,0,1,0-6H344.33A3,3,0,0,1,344.33,636Z" transform="translate(-225.15 -605.24)"/><path class="cls-3" d="M338.6,617.71c-1-3.84-4.36-6.31-7.49-5.53,0.24,0.5.49,1,.74,1.6a3.25,3.25,0,0,1,.45,0c2,0,4,1.8,4.64,4.4a6.44,6.44,0,0,1-.24,4.19,3.85,3.85,0,0,1-1.92,2,8.55,8.55,0,0,1-.23,1.89l0.17,0a5.4,5.4,0,0,0,3.55-3.21A8.16,8.16,0,0,0,338.6,617.71Z" transform="translate(-225.15 -605.24)"/><path class="cls-1" d="M333.46,617.81c-0.55-1.52-1.09-2.86-1.61-4-0.25-.57-0.5-1.1-0.74-1.6-4.63-9.51-7.59-6.08-7.59-6.08v24.82s9.41,1.91,11-4.67a8.55,8.55,0,0,0,.23-1.89A18.49,18.49,0,0,0,333.46,617.81Z" transform="translate(-225.15 -605.24)"/><path class="cls-3" d="M322.66,631.78a0.86,0.86,0,0,1-.86-0.86V606.1a0.86,0.86,0,1,1,1.72,0v24.82A0.86,0.86,0,0,1,322.66,631.78Z" transform="translate(-225.15 -605.24)"/></svg>