<svg id="Layer_1" data-name="Layer 1" xmlns="http://www.w3.org/2000/svg" viewBox="0 0 58.71 30.24"><defs><style>.cls-1{fill:#4e888c;}.cls-2{fill:#06251c;}</style></defs><title>T1_Light</title><path class="cls-1" d="M949.94,718.57H899.39c0,0.24,0,.47,0,0.71a25.29,25.29,0,1,0,50.58,0C950,719,949.95,718.81,949.94,718.57Z" transform="translate(-895.31 -716.03)"/><path class="cls-2" d="M924.67,745.3a26,26,0,0,1-26-26c0-.18,0-0.35,0-0.53l0-.91h52l0,0.91c0,0.17,0,.35,0,0.53A26,26,0,0,1,924.67,745.3Zm-24.57-26a24.57,24.57,0,0,0,49.13,0H900.1Z" transform="translate(-895.31 -716.03)"/><path class="cls-2" d="M951.48,721.11H897.85a2.54,2.54,0,0,1,0-5.09h53.62A2.54,2.54,0,0,1,951.48,721.11Z" transform="translate(-895.31 -716.03)"/><rect class="cls-2" x="26.11" y="28.31" width="6.49" height="1.94" rx="0.97" ry="0.97"/></svg>