<svg id="Layer_1" data-name="Layer 1" xmlns="http://www.w3.org/2000/svg" viewBox="0 0 71.41 119.51"><defs><style>.cls-1{fill:#4e888c;}.cls-2{fill:#06251c;}.cls-3{fill:#65b891;}</style></defs><title>T1_Sink</title><path class="cls-1" d="M899.77,833.1h-1.64V810.76c0-3.72,3.51-6.74,7.82-6.74s7.82,3,7.82,6.74v2.34h-1.64v-2.34c0-2.81-2.77-5.1-6.18-5.1s-6.18,2.29-6.18,5.1V833.1Z" transform="translate(-863.66 -804.02)"/><path class="cls-2" d="M914.54,815.19h-3.19a0.39,0.39,0,0,1-.42-0.35l0.8-2.84a0.39,0.39,0,0,1,.42-0.35h1.58a0.39,0.39,0,0,1,.42.35l0.8,2.84A0.39,0.39,0,0,1,914.54,815.19Z" transform="translate(-863.66 -804.02)"/><path class="cls-1" d="M892.32,828.28l-0.46-2.89a0.28,0.28,0,0,1,.27-0.32H896a0.28,0.28,0,0,1,.27.32l-0.46,2.89a0.28,0.28,0,0,1-.27.23h-3A0.28,0.28,0,0,1,892.32,828.28Z" transform="translate(-863.66 -804.02)"/><path class="cls-1" d="M902.06,828.28l-0.46-2.89a0.28,0.28,0,0,1,.27-0.32h3.9a0.28,0.28,0,0,1,.27.32l-0.46,2.89a0.28,0.28,0,0,1-.27.23h-3A0.28,0.28,0,0,1,902.06,828.28Z" transform="translate(-863.66 -804.02)"/><path class="cls-3" d="M899.37,844.44c10.64,0,19.51-5.65,21.47-13.12a2.51,2.51,0,0,0-2.45-3.12h-38a2.51,2.51,0,0,0-2.45,3.12C879.86,838.8,888.73,844.44,899.37,844.44Z" transform="translate(-863.66 -804.02)"/><rect class="cls-3" x="2.41" y="40.16" width="66.59" height="78.52"/><path class="cls-2" d="M899.37,923.53a0.83,0.83,0,0,1-.83-0.83V844.19a0.83,0.83,0,0,1,1.65,0v78.52A0.83,0.83,0,0,1,899.37,923.53Z" transform="translate(-863.66 -804.02)"/><circle class="cls-2" cx="18.67" cy="51.5" r="2.05"/><circle class="cls-2" cx="52.74" cy="51.5" r="2.05"/><rect class="cls-2" y="37.37" width="71.41" height="5.59" rx="0.76" ry="0.76"/></svg>