<svg id="Layer_1" data-name="Layer 1" xmlns="http://www.w3.org/2000/svg" viewBox="0 0 58.71 30.24"><defs><style>.cls-1{fill:#4e888c;}.cls-2{fill:#06251c;}</style></defs><title>T2_Light</title><path class="cls-1" d="M904.11,282.46H853.56c0,0.24,0,.47,0,0.71a25.29,25.29,0,1,0,50.58,0C904.13,282.93,904.12,282.7,904.11,282.46Z" transform="translate(-849.48 -279.92)"/><path class="cls-2" d="M878.84,309.19a26,26,0,0,1-26-26c0-.18,0-0.35,0-0.53l0-.91h52l0,0.91c0,0.17,0,.35,0,0.53A26,26,0,0,1,878.84,309.19Zm-24.57-26a24.57,24.57,0,0,0,49.13,0H854.27Z" transform="translate(-849.48 -279.92)"/><path class="cls-2" d="M905.65,285H852a2.54,2.54,0,1,1,0-5.09h53.62A2.54,2.54,0,1,1,905.65,285Z" transform="translate(-849.48 -279.92)"/><rect class="cls-2" x="26.11" y="28.31" width="6.49" height="1.94" rx="0.97" ry="0.97"/></svg>