<svg id="Layer_1" data-name="Layer 1" xmlns="http://www.w3.org/2000/svg" viewBox="0 0 80.2 102.4"><defs><style>.cls-1{fill:#06251c;}.cls-2{fill:#4e888c;}</style></defs><title>T2_Toilet</title><path class="cls-1" d="M730.89,410.56h54.79a0,0,0,0,1,0,0V413a0,0,0,0,1,0,0H730.89a1.22,1.22,0,0,1-1.22-1.22v0A1.22,1.22,0,0,1,730.89,410.56Z" transform="translate(511.41 -686.14) rotate(95.58)"/><path class="cls-2" d="M755.15,486.3c0-28.38,19.11-26.76,27.42-27.42,9.67-.77,27.42,4.1,27.42-27.42H755.15V393H733.31V486.3h21.84Z" transform="translate(-729.8 -383.9)"/><rect class="cls-1" x="729.8" y="390.66" width="28.63" height="4.76" rx="2.38" ry="2.38" transform="translate(758.42 402.18) rotate(-180)"/><path class="cls-1" d="M746,406.46a4.75,4.75,0,0,0,3.63-1.4,1.9,1.9,0,0,0-2.8-2.58c-0.31.33-2.08,0.18-3.62-.47a1.9,1.9,0,0,0-1.48,3.5A11.87,11.87,0,0,0,746,406.46Z" transform="translate(-729.8 -383.9)"/></svg>