<svg id="Layer_1" data-name="Layer 1" xmlns="http://www.w3.org/2000/svg" viewBox="0 0 31.53 9.36"><defs><style>.cls-1{fill:#4e888c;}.cls-2{fill:#65b891;}.cls-3{fill:#06251c;}</style></defs><title>TV_Cable</title><rect class="cls-1" width="31.53" height="9.36" rx="1.05" ry="1.05"/><rect class="cls-2" x="2.32" y="2.18" width="9.48" height="4.74" rx="1.39" ry="1.39"/><path class="cls-3" d="M147.72,888.06H132.89a0.15,0.15,0,0,1,0-.3h14.83A0.15,0.15,0,0,1,147.72,888.06Z" transform="translate(-118.83 -885.73)"/><path class="cls-3" d="M147.72,889.08H132.89a0.15,0.15,0,0,1,0-.3h14.83A0.15,0.15,0,0,1,147.72,889.08Z" transform="translate(-118.83 -885.73)"/><path class="cls-3" d="M147.72,890.1H132.89a0.15,0.15,0,0,1,0-.3h14.83A0.15,0.15,0,0,1,147.72,890.1Z" transform="translate(-118.83 -885.73)"/><path class="cls-3" d="M147.72,891.12H132.89a0.15,0.15,0,0,1,0-.3h14.83A0.15,0.15,0,0,1,147.72,891.12Z" transform="translate(-118.83 -885.73)"/><path class="cls-3" d="M147.72,892.14H132.89a0.15,0.15,0,0,1,0-.3h14.83A0.15,0.15,0,0,1,147.72,892.14Z" transform="translate(-118.83 -885.73)"/><path class="cls-3" d="M147.72,893.16H132.89a0.15,0.15,0,0,1,0-.3h14.83A0.15,0.15,0,0,1,147.72,893.16Z" transform="translate(-118.83 -885.73)"/></svg>