<svg id="Layer_1" data-name="Layer 1" xmlns="http://www.w3.org/2000/svg" viewBox="0 0 58.71 30.24"><defs><style>.cls-1{fill:#4e888c;}.cls-2{fill:#06251c;}</style></defs><title>TV_Light</title><path class="cls-1" d="M257.89,718.57H207.34c0,0.24,0,.47,0,0.71a25.29,25.29,0,1,0,50.58,0C257.91,719,257.89,718.81,257.89,718.57Z" transform="translate(-203.26 -716.03)"/><path class="cls-2" d="M232.61,745.3a26,26,0,0,1-26-26c0-.18,0-0.35,0-0.53l0-.91h52l0,0.91c0,0.17,0,.35,0,0.53A26,26,0,0,1,232.61,745.3ZM208,719.3a24.57,24.57,0,0,0,49.13,0H208Z" transform="translate(-203.26 -716.03)"/><path class="cls-2" d="M259.43,721.11H205.8a2.54,2.54,0,0,1,0-5.09h53.62A2.54,2.54,0,1,1,259.43,721.11Z" transform="translate(-203.26 -716.03)"/><rect class="cls-2" x="26.11" y="28.31" width="6.49" height="1.94" rx="0.97" ry="0.97"/></svg>