<svg id="Layer_1" data-name="Layer 1" xmlns="http://www.w3.org/2000/svg" viewBox="0 0 65.32 144.7"><defs><style>.cls-1{fill:#06251c;}.cls-2{fill:#65b891;}</style></defs><title>TV_Lamp</title><rect class="cls-1" x="37.36" y="138.38" width="27.96" height="6.31"/><path class="cls-1" d="M333.79,820.53a7.53,7.53,0,1,1,7.53-7.53A7.54,7.54,0,0,1,333.79,820.53Zm0-14.72A7.18,7.18,0,1,0,341,813,7.19,7.19,0,0,0,333.79,805.81Z" transform="translate(-311.32 -778.14)"/><path class="cls-1" d="M364.43,919.68h-3.52V794.27a12.61,12.61,0,0,0-25.21,0V801h-3.52v-6.68a16.13,16.13,0,0,1,32.25,0V919.68Z" transform="translate(-311.32 -778.14)"/><path class="cls-2" d="M332.82,792.68l-21.09,21.09a1.37,1.37,0,0,0,1,2.35h42.19a1.37,1.37,0,0,0,1-2.35l-21.09-21.09A1.37,1.37,0,0,0,332.82,792.68Z" transform="translate(-311.32 -778.14)"/></svg>