<svg id="Layer_1" data-name="Layer 1" xmlns="http://www.w3.org/2000/svg" viewBox="0 0 116.63 110.34"><defs><style>.cls-1{fill:#4e888c;}.cls-2{fill:#06251c;}</style></defs><title>TV_TV</title><line class="cls-1" x1="58.32" y1="61.15" x2="58.32" y2="47.76"/><rect class="cls-2" x="56.54" y="47.76" width="3.55" height="13.39"/><path class="cls-2" d="M102.78,879.68v40.42a2.72,2.72,0,0,0,2.27,2.72,2.66,2.66,0,0,0,3.06-2.63V898.64h106v21.45a2.72,2.72,0,0,0,2.27,2.72,2.66,2.66,0,0,0,3.06-2.63V879.59a2.13,2.13,0,0,0-2.13-2.13H105A2.22,2.22,0,0,0,102.78,879.68Zm5.33,15.41V882.78h106v12.31h-106Z" transform="translate(-102.78 -812.5)"/><rect class="cls-1" x="38.15" y="57.34" width="40.34" height="7.62" rx="3.81" ry="3.81"/><rect class="cls-1" x="12.54" y="1.78" width="91.55" height="45.98" rx="4.74" ry="4.74"/><path class="cls-2" d="M203.17,862H119a5.49,5.49,0,0,1-5.48-5.48V818A5.49,5.49,0,0,1,119,812.5h84.14a5.49,5.49,0,0,1,5.48,5.48v38.57A5.49,5.49,0,0,1,203.17,862ZM119,816A1.93,1.93,0,0,0,117.1,818v38.57a1.93,1.93,0,0,0,1.93,1.93h84.14a1.93,1.93,0,0,0,1.93-1.93V818a1.93,1.93,0,0,0-1.93-1.93H119Z" transform="translate(-102.78 -812.5)"/></svg>