<svg id="Layer_1" data-name="Layer 1" xmlns="http://www.w3.org/2000/svg" viewBox="0 0 37.77 121.61"><defs><style>.cls-1{fill:#06251c;}.cls-2{fill:#65b891;}</style></defs><title>Comp_Lamp</title><rect class="cls-1" x="7.14" y="116.3" width="23.5" height="5.31"/><rect class="cls-1" x="17.41" y="21.89" width="2.96" height="97.06"/><path class="cls-1" d="M663.15,365.59a6.33,6.33,0,1,1-6.33,6.33A6.34,6.34,0,0,1,663.15,365.59Zm0,12.37a6,6,0,1,0-6-6A6,6,0,0,0,663.15,378Z" transform="translate(-644.27 -365.59)"/><path class="cls-2" d="M664,389l17.73-17.73a1.15,1.15,0,0,0-.82-2H645.42a1.15,1.15,0,0,0-.82,2L662.33,389A1.15,1.15,0,0,0,664,389Z" transform="translate(-644.27 -365.59)"/></svg>