<svg id="Layer_1" data-name="Layer 1" xmlns="http://www.w3.org/2000/svg" viewBox="0 0 25.16 16.98"><defs><style>.cls-1{fill:#06251c;}.cls-2{fill:#65b891;}.cls-3{fill:#4e888c;}</style></defs><title>Router</title><path class="cls-1" d="M480.92,469.38c1.06,0.72,2.07,1.49,3.09,2.25,0.24,0.21.43,0.46,0.66,0.67l0.67,0.67,1.34,1.34,5.34,5.34H491.2l5.32-5.32,1.33-1.33,0.66-.66c0.23-.21.42-0.47,0.67-0.66,1-.76,2-1.53,3.07-2.25-0.72,1.05-1.49,2.06-2.25,3.07-0.2.24-.45,0.43-0.66,0.67l-0.66.66-1.33,1.33L492,480.47l-0.41.41-0.41-.41-5.34-5.34-1.34-1.34-0.67-.67c-0.21-.23-0.46-0.43-0.67-0.66C482.41,471.45,481.64,470.44,480.92,469.38Z" transform="translate(-479.03 -469.38)"/><rect class="cls-1" y="9.52" width="25.16" height="7.46" rx="1.05" ry="1.05"/><rect class="cls-2" x="1.85" y="11.26" width="7.57" height="3.78" rx="1.39" ry="1.39"/><path class="cls-3" d="M502.08,480.76H490.25a0.12,0.12,0,0,1,0-.24h11.83A0.12,0.12,0,0,1,502.08,480.76Z" transform="translate(-479.03 -469.38)"/><path class="cls-3" d="M502.08,481.57H490.25a0.12,0.12,0,1,1,0-.24h11.83A0.12,0.12,0,1,1,502.08,481.57Z" transform="translate(-479.03 -469.38)"/><path class="cls-3" d="M502.08,482.38H490.25a0.12,0.12,0,0,1,0-.24h11.83A0.12,0.12,0,0,1,502.08,482.38Z" transform="translate(-479.03 -469.38)"/><path class="cls-3" d="M502.08,483.2H490.25a0.12,0.12,0,0,1,0-.24h11.83A0.12,0.12,0,1,1,502.08,483.2Z" transform="translate(-479.03 -469.38)"/><path class="cls-3" d="M502.08,484H490.25a0.12,0.12,0,0,1,0-.24h11.83A0.12,0.12,0,0,1,502.08,484Z" transform="translate(-479.03 -469.38)"/><path class="cls-3" d="M502.08,484.82H490.25a0.12,0.12,0,0,1,0-.24h11.83A0.12,0.12,0,1,1,502.08,484.82Z" transform="translate(-479.03 -469.38)"/></svg>