<svg id="Layer_1" data-name="Layer 1" xmlns="http://www.w3.org/2000/svg" viewBox="0 0 42.1 97.64"><defs><style>.cls-1{fill:#06251c;}.cls-2{fill:#4e888c;}.cls-3{fill:#65b891;}</style></defs><title>Fan</title><rect class="cls-1" x="4.21" y="94.01" width="35.79" height="3.63" rx="1.81" ry="1.81"/><line class="cls-1" x1="21.05" y1="94.01" x2="21.05" y2="21.05"/><rect class="cls-1" x="20.05" y="21.05" width="2" height="72.96"/><path class="cls-2" d="M607,390.09v-0.43c-11.7,5.32-1.92,17.77-.24,19.77V410S619.35,396,607,390.09Z" transform="translate(-585.98 -388.66)"/><path class="cls-2" d="M586.86,409.78h-0.43c5.32,11.7,17.77,1.92,19.77.24h0.59S592.73,397.46,586.86,409.78Z" transform="translate(-585.98 -388.66)"/><path class="cls-2" d="M606.54,429.95v0.43c11.7-5.32,1.92-17.77.24-19.77V410S594.23,424.08,606.54,429.95Z" transform="translate(-585.98 -388.66)"/><path class="cls-2" d="M626.71,410.26h0.43c-5.32-11.7-17.77-1.92-19.77-.24h-0.59S620.84,422.58,626.71,410.26Z" transform="translate(-585.98 -388.66)"/><polygon class="cls-3" points="34.56 35.52 32.73 27.77 20.82 21.49 21.28 20.61 33.6 27.1 35.53 35.29 34.56 35.52"/><polygon class="cls-3" points="36.86 32.95 33.73 25.64 20.9 21.53 21.2 20.57 34.46 24.83 37.78 32.56 36.86 32.95"/><polygon class="cls-3" points="38.69 30.03 34.33 23.37 20.98 21.55 21.12 20.55 34.92 22.44 39.53 29.48 38.69 30.03"/><polygon class="cls-3" points="39.98 26.83 34.53 21.03 21.07 21.55 21.03 20.55 34.95 20.01 40.71 26.14 39.98 26.83"/><polygon class="cls-3" points="40.7 23.45 34.32 18.69 21.16 21.54 20.95 20.56 34.55 17.61 41.3 22.65 40.7 23.45"/><polygon class="cls-3" points="21.24 21.51 20.86 20.59 33.75 15.32 41.27 19.11 40.82 20 33.71 16.42 21.24 21.51"/><polygon class="cls-3" points="21.32 21.47 20.78 20.63 32.56 13.2 40.62 15.63 40.33 16.59 32.71 14.29 21.32 21.47"/><polygon class="cls-3" points="21.39 21.42 20.71 20.68 31.03 11.32 39.38 12.31 39.27 13.31 31.36 12.37 21.39 21.42"/><polygon class="cls-3" points="21.45 21.36 20.66 20.74 29.19 9.74 37.59 9.26 37.65 10.26 29.7 10.71 21.45 21.36"/><polygon class="cls-3" points="21.49 21.28 20.61 20.82 27.1 8.5 35.29 6.57 35.52 7.54 27.77 9.37 21.49 21.28"/><polygon class="cls-3" points="21.53 21.2 20.57 20.9 24.83 7.64 32.56 4.32 32.95 5.24 25.64 8.38 21.53 21.2"/><polygon class="cls-3" points="21.55 21.12 20.55 20.98 22.44 7.18 29.48 2.57 30.03 3.41 23.37 7.77 21.55 21.12"/><polygon class="cls-3" points="20.55 21.07 20.01 7.15 26.14 1.39 26.83 2.12 21.03 7.57 21.55 21.03 20.55 21.07"/><polygon class="cls-3" points="20.56 21.16 17.61 7.55 22.65 0.81 23.45 1.4 18.69 7.78 21.54 20.94 20.56 21.16"/><polygon class="cls-3" points="20.59 21.24 15.32 8.35 19.11 0.83 20 1.28 16.42 8.39 21.51 20.86 20.59 21.24"/><polygon class="cls-3" points="20.63 21.32 13.2 9.54 15.63 1.48 16.59 1.77 14.29 9.39 21.47 20.78 20.63 21.32"/><polygon class="cls-3" points="20.68 21.39 11.32 11.07 12.31 2.72 13.31 2.83 12.37 10.74 21.42 20.71 20.68 21.39"/><polygon class="cls-3" points="20.75 21.45 9.74 12.91 9.26 4.51 10.26 4.46 10.71 12.4 21.36 20.66 20.75 21.45"/><polygon class="cls-3" points="20.82 21.49 8.5 15 6.57 6.81 7.54 6.58 9.37 14.33 21.28 20.61 20.82 21.49"/><polygon class="cls-3" points="20.9 21.53 7.64 17.27 4.32 9.54 5.24 9.15 8.38 16.46 21.2 20.57 20.9 21.53"/><polygon class="cls-3" points="20.98 21.55 7.19 19.66 2.57 12.62 3.41 12.07 7.77 18.73 21.12 20.55 20.98 21.55"/><polygon class="cls-3" points="7.16 22.09 1.39 15.96 2.12 15.27 7.57 21.07 21.03 20.55 21.07 21.55 7.16 22.09"/><polygon class="cls-3" points="7.55 24.49 0.81 19.45 1.4 18.65 7.78 23.41 20.95 20.56 21.16 21.54 7.55 24.49"/><polygon class="cls-3" points="8.35 26.78 0.83 22.99 1.28 22.1 8.39 25.68 20.86 20.59 21.24 21.51 8.35 26.78"/><polygon class="cls-3" points="9.54 28.9 1.48 26.47 1.77 25.51 9.39 27.81 20.78 20.63 21.32 21.47 9.54 28.9"/><polygon class="cls-3" points="11.07 30.78 2.72 29.79 2.83 28.79 10.74 29.73 20.71 20.68 21.39 21.42 11.07 30.78"/><polygon class="cls-3" points="4.51 32.84 4.46 31.84 12.4 31.39 20.66 20.74 21.45 21.36 12.92 32.36 4.51 32.84"/><polygon class="cls-3" points="6.81 35.53 6.58 34.56 14.33 32.73 20.61 20.82 21.49 21.28 15 33.6 6.81 35.53"/><polygon class="cls-3" points="9.54 37.78 9.15 36.86 16.46 33.73 20.57 20.9 21.53 21.2 17.27 34.46 9.54 37.78"/><polygon class="cls-3" points="12.62 39.53 12.07 38.69 18.73 34.33 20.55 20.98 21.55 21.12 19.66 34.92 12.62 39.53"/><polygon class="cls-3" points="15.96 40.71 15.27 39.98 21.07 34.53 20.55 21.07 21.55 21.03 22.09 34.95 15.96 40.71"/><polygon class="cls-3" points="19.45 41.3 18.65 40.7 23.41 34.32 20.56 21.16 21.54 20.94 24.49 34.55 19.45 41.3"/><polygon class="cls-3" points="22.99 41.27 22.1 40.82 25.68 33.71 20.59 21.24 21.51 20.86 26.78 33.75 22.99 41.27"/><polygon class="cls-3" points="26.47 40.62 25.51 40.33 27.81 32.71 20.63 21.32 21.47 20.78 28.9 32.56 26.47 40.62"/><polygon class="cls-3" points="29.79 39.38 28.79 39.27 29.73 31.36 20.68 21.39 21.42 20.71 30.78 31.03 29.79 39.38"/><polygon class="cls-3" points="31.84 37.65 31.39 29.7 20.75 21.45 21.36 20.66 32.36 29.19 32.84 37.59 31.84 37.65"/><path class="cls-1" d="M607,430.76a21.05,21.05,0,1,1,21.05-21.05A21.07,21.07,0,0,1,607,430.76Zm0-40.1a19.05,19.05,0,1,0,19.05,19.05A19.07,19.07,0,0,0,607,390.66Z" transform="translate(-585.98 -388.66)"/></svg>