<svg id="Layer_1" data-name="Layer 1" xmlns="http://www.w3.org/2000/svg" viewBox="0 0 114.38 86.81"><defs><style>.cls-1{fill:#4e888c;}.cls-2{fill:#06251c;}.cls-3{fill:#65b891;}</style></defs><title>furnace</title><path class="cls-1" d="M54.51,0h40a19.89,19.89,0,0,1,19.89,19.89V86.81a0,0,0,0,1,0,0H54.51a0,0,0,0,1,0,0V0A0,0,0,0,1,54.51,0Z"/><path class="cls-2" d="M461.95,268.24h-31v-4.4a54.57,54.57,0,0,1,54.51-54.51v31a23.54,23.54,0,0,0-23.51,23.51v4.4Z" transform="translate(-430.95 -181.43)"/><rect class="cls-2" x="65.26" y="18.67" width="38.38" height="49.46"/><path class="cls-3" d="M536.08,251.06H494.7V198.6h41.38v52.46Zm-38.38-3h35.38V201.6H497.7v46.46Z" transform="translate(-430.95 -181.43)"/></svg>