<svg id="Layer_1" data-name="Layer 1" xmlns="http://www.w3.org/2000/svg" viewBox="0 0 70.03 88.36"><defs><style>.cls-1{fill:#06251c;}.cls-2{fill:#4e888c;}</style></defs><title>Lau_Shelf</title><rect class="cls-1" y="0.82" width="70.03" height="86.73" rx="3.9" ry="3.9"/><path class="cls-2" d="M259.94,607.79a0.92,0.92,0,0,1-1-.82V520.24a1,1,0,0,1,2,0V607A0.92,0.92,0,0,1,259.94,607.79Z" transform="translate(-224.93 -519.42)"/><circle class="cls-2" cx="23.02" cy="60.59" r="1.1"/><circle class="cls-2" cx="23.02" cy="72.52" r="1.1"/><path class="cls-2" d="M248.33,592.26l-0.77-.64c4.51-5.42.18-11.06,0-11.3l0.78-.62C248.39,579.76,253.37,586.21,248.33,592.26Z" transform="translate(-224.93 -519.42)"/><circle class="cls-2" cx="47.01" cy="60.59" r="1.1"/><circle class="cls-2" cx="47.01" cy="72.52" r="1.1"/><path class="cls-2" d="M271.56,592.26c-5-6-.06-12.49,0-12.56l0.78,0.62c-0.19.24-4.52,5.88,0,11.3Z" transform="translate(-224.93 -519.42)"/></svg>