<svg id="Layer_1" data-name="Layer 1" xmlns="http://www.w3.org/2000/svg" viewBox="0 0 37.77 121.61"><defs><style>.cls-1{fill:#06251c;}.cls-2{fill:#65b891;}</style></defs><title>Lau_Lamp</title><rect class="cls-1" x="7.14" y="116.3" width="23.5" height="5.31"/><rect class="cls-1" x="17.41" y="21.89" width="2.96" height="97.06"/><path class="cls-1" d="M378.12,583a6.33,6.33,0,1,1-6.33,6.33A6.34,6.34,0,0,1,378.12,583Zm0,12.37a6,6,0,1,0-6-6A6,6,0,0,0,378.12,595.41Z" transform="translate(-359.24 -583.04)"/><path class="cls-2" d="M378.94,606.45l17.73-17.73a1.15,1.15,0,0,0-.82-2H360.39a1.15,1.15,0,0,0-.82,2l17.73,17.73A1.15,1.15,0,0,0,378.94,606.45Z" transform="translate(-359.24 -583.04)"/></svg>