<svg id="Layer_1" data-name="Layer 1" xmlns="http://www.w3.org/2000/svg" viewBox="0 0 66.77 78.52"><defs><style>.cls-1{fill:#4e888c;}.cls-2{fill:#06251c;}</style></defs><title>T1_Toilet</title><path class="cls-1" d="M1008.16,922.71c0-23.3-15.69-22-22.52-22.52-7.94-.63-22.52,3.36-22.52-22.52h45V846.14h17.93v76.57h-17.93Z" transform="translate(-962.2 -844.19)"/><path class="cls-2" d="M1,30.38H46a0,0,0,0,1,0,0v2a0,0,0,0,1,0,0H1a1,1,0,0,1-1-1v0a1,1,0,0,1,1-1Z"/><rect class="cls-2" x="43.27" width="23.5" height="3.91" rx="1.95" ry="1.95"/><path class="cls-2" d="M1015.68,857.16a3.9,3.9,0,0,1-3-1.15,1.56,1.56,0,0,1,2.3-2.11c0.25,0.27,1.7.15,3-.38a1.56,1.56,0,0,1,1.22,2.88A9.75,9.75,0,0,1,1015.68,857.16Z" transform="translate(-962.2 -844.19)"/></svg>