<svg id="Layer_1" data-name="Layer 1" xmlns="http://www.w3.org/2000/svg" viewBox="0 0 104.82 89.73"><defs><style>.cls-1{fill:#4e888c;}.cls-2{fill:#06251c;}</style></defs><title>TV_Chair</title><rect class="cls-1" x="279.33" y="860.56" width="89.73" height="34.83" rx="14.64" ry="14.64" transform="translate(965.38 -279.33) rotate(90)"/><line class="cls-1" x1="4.75" y1="84.73" x2="25.58" y2="46.82"/><path class="cls-1" d="M241.54,922.6a4.75,4.75,0,0,1-4.16-7l20.82-37.91a4.75,4.75,0,1,1,8.33,4.58l-20.82,37.91A4.75,4.75,0,0,1,241.54,922.6Z" transform="translate(-236.79 -833.11)"/><rect class="cls-2" x="13.86" y="31.2" width="83.28" height="58.53" rx="15.01" ry="15.01"/><path class="cls-1" d="M283.85,863.59H257.63a8.78,8.78,0,0,0-8.78,8.78v3.35h0a3.49,3.49,0,0,0,3.49,3.49h33.52a9.45,9.45,0,0,0,9.45-9.45v-2.67a3.49,3.49,0,0,0-3.49-3.49h-8Z" transform="translate(-236.79 -833.11)"/></svg>