<svg id="Layer_1" data-name="Layer 1" xmlns="http://www.w3.org/2000/svg" viewBox="0 0 77.96 108.51"><defs><style>.cls-1{fill:#06251c;}.cls-2{fill:#65b891;}.cls-3{fill:#4e888c;}.cls-4{fill:#ffc649;}</style></defs><title>B1_Drawer</title><path class="cls-1" d="M668.8,624.58l-0.56-.83a8.51,8.51,0,0,0,3.13-3.36,4.34,4.34,0,0,0-.16-4.21,7.33,7.33,0,0,0-.87-1,6.06,6.06,0,0,1-1.25-1.58,3.46,3.46,0,0,1-.07-2.77,4.5,4.5,0,0,1,2.43-2.54,7,7,0,0,1,5.9.64,11.83,11.83,0,0,1,4.68,4.59l-0.87.49a10.82,10.82,0,0,0-4.28-4.2,6,6,0,0,0-5.05-.6,3.54,3.54,0,0,0-1.88,2,2.47,2.47,0,0,0,0,2A5.24,5.24,0,0,0,671,614.5a8.23,8.23,0,0,1,1,1.11,5.36,5.36,0,0,1,.24,5.19A9.46,9.46,0,0,1,668.8,624.58Z" transform="translate(-647.41 -595.75)"/><rect class="cls-2" x="1.85" y="94.48" width="74.26" height="14.02"/><rect class="cls-2" x="1.85" y="80.46" width="74.26" height="14.02"/><rect class="cls-2" x="1.85" y="66.44" width="74.26" height="14.02"/><rect class="cls-2" x="1.85" y="52.42" width="74.26" height="14.02"/><rect class="cls-2" x="1.85" y="38.4" width="74.26" height="14.02"/><path class="cls-2" d="M9,24.37H68.91a7.2,7.2,0,0,1,7.2,7.2V38.4a0,0,0,0,1,0,0H1.85a0,0,0,0,1,0,0V31.57A7.2,7.2,0,0,1,9,24.37Z"/><path class="cls-3" d="M724.65,691H648.13a0.72,0.72,0,1,1,0-1.44h76.52A0.72,0.72,0,1,1,724.65,691Z" transform="translate(-647.41 -595.75)"/><path class="cls-3" d="M724.65,676.93H648.13a0.72,0.72,0,0,1,0-1.44h76.52A0.72,0.72,0,0,1,724.65,676.93Z" transform="translate(-647.41 -595.75)"/><path class="cls-3" d="M724.65,662.91H648.13a0.72,0.72,0,0,1,0-1.44h76.52A0.72,0.72,0,0,1,724.65,662.91Z" transform="translate(-647.41 -595.75)"/><path class="cls-3" d="M724.65,648.89H648.13a0.72,0.72,0,1,1,0-1.44h76.52A0.72,0.72,0,1,1,724.65,648.89Z" transform="translate(-647.41 -595.75)"/><path class="cls-3" d="M724.65,634.86H648.13a0.72,0.72,0,0,1,0-1.44h76.52A0.72,0.72,0,0,1,724.65,634.86Z" transform="translate(-647.41 -595.75)"/><path class="cls-1" d="M691.53,623.72H681.25a0.72,0.72,0,0,1,0-1.44h10.29A0.72,0.72,0,0,1,691.53,623.72Z" transform="translate(-647.41 -595.75)"/><path class="cls-1" d="M691.53,637.74H681.25a0.72,0.72,0,0,1,0-1.44h10.29A0.72,0.72,0,0,1,691.53,637.74Z" transform="translate(-647.41 -595.75)"/><path class="cls-1" d="M691.53,651.77H681.25a0.72,0.72,0,1,1,0-1.44h10.29A0.72,0.72,0,1,1,691.53,651.77Z" transform="translate(-647.41 -595.75)"/><path class="cls-1" d="M691.53,665.79H681.25a0.72,0.72,0,0,1,0-1.44h10.29A0.72,0.72,0,0,1,691.53,665.79Z" transform="translate(-647.41 -595.75)"/><path class="cls-1" d="M691.53,679.81H681.25a0.72,0.72,0,0,1,0-1.44h10.29A0.72,0.72,0,0,1,691.53,679.81Z" transform="translate(-647.41 -595.75)"/><path class="cls-1" d="M691.53,693.83H681.25a0.72,0.72,0,0,1,0-1.44h10.29A0.72,0.72,0,1,1,691.53,693.83Z" transform="translate(-647.41 -595.75)"/><rect class="cls-1" x="30.13" width="17.71" height="24.37"/><rect class="cls-4" x="677.08" y="601.96" width="18.61" height="11.95" transform="translate(646.91 -674.2) rotate(90)"/></svg>