<svg id="Layer_1" data-name="Layer 1" xmlns="http://www.w3.org/2000/svg" viewBox="0 0 73.13 98.26"><defs><style>.cls-1{fill:#06251c;}.cls-2{fill:#4e888c;}.cls-3{fill:#65b891;}</style></defs><title>Comp_Fan</title><rect class="cls-1" x="35.24" y="94.63" width="35.79" height="3.63" rx="1.81" ry="1.81"/><line class="cls-1" x1="52.08" y1="94.63" x2="52.08" y2="21.67"/><rect class="cls-1" x="51.08" y="21.67" width="2" height="72.96"/><path class="cls-2" d="M607,390.09v-0.43c-11.7,5.32-1.92,17.77-.24,19.77V410S619.35,396,607,390.09Z" transform="translate(-554.94 -388.03)"/><path class="cls-2" d="M586.86,409.78h-0.43c5.32,11.7,17.77,1.92,19.77.24h0.59S592.73,397.46,586.86,409.78Z" transform="translate(-554.94 -388.03)"/><path class="cls-2" d="M606.54,429.95v0.43c11.7-5.32,1.92-17.77.24-19.77V410S594.23,424.08,606.54,429.95Z" transform="translate(-554.94 -388.03)"/><path class="cls-2" d="M626.71,410.26h0.43c-5.32-11.7-17.77-1.92-19.77-.24h-0.59S620.84,422.58,626.71,410.26Z" transform="translate(-554.94 -388.03)"/><polygon class="cls-3" points="65.59 36.14 63.77 28.39 51.85 22.11 52.32 21.23 64.64 27.72 66.56 35.91 65.59 36.14"/><polygon class="cls-3" points="67.9 33.58 64.76 26.26 51.93 22.15 52.24 21.2 65.5 25.45 68.81 33.18 67.9 33.58"/><polygon class="cls-3" points="69.72 30.65 65.36 23.99 52.02 22.17 52.15 21.18 65.95 23.06 70.56 30.1 69.72 30.65"/><polygon class="cls-3" points="71.01 27.45 65.56 21.65 52.1 22.17 52.06 21.17 65.98 20.63 71.74 26.77 71.01 27.45"/><polygon class="cls-3" points="71.73 24.07 65.35 19.31 52.19 22.16 51.98 21.18 65.59 18.23 72.33 23.27 71.73 24.07"/><polygon class="cls-3" points="52.27 22.14 51.89 21.21 64.78 15.94 72.3 19.73 71.85 20.63 64.74 17.04 52.27 22.14"/><polygon class="cls-3" points="52.35 22.09 51.82 21.25 63.6 13.82 71.66 16.25 71.36 17.21 63.74 14.91 52.35 22.09"/><polygon class="cls-3" points="52.42 22.04 51.75 21.3 62.06 11.94 70.42 12.94 70.3 13.93 62.39 12.99 52.42 22.04"/><polygon class="cls-3" points="52.48 21.98 51.69 21.37 60.22 10.36 68.62 9.89 68.68 10.88 60.73 11.33 52.48 21.98"/><polygon class="cls-3" points="52.52 21.91 51.64 21.44 58.13 9.12 66.32 7.19 66.55 8.17 58.8 9.99 52.52 21.91"/><polygon class="cls-3" points="52.56 21.82 51.61 21.52 55.86 8.26 63.59 4.94 63.99 5.86 56.67 9 52.56 21.82"/><polygon class="cls-3" points="52.58 21.74 51.59 21.61 53.47 7.81 60.51 3.2 61.06 4.03 54.4 8.39 52.58 21.74"/><polygon class="cls-3" points="51.58 21.69 51.04 7.78 57.17 2.01 57.86 2.74 52.06 8.19 52.58 21.65 51.58 21.69"/><polygon class="cls-3" points="51.59 21.78 48.65 8.17 53.68 1.43 54.48 2.03 49.72 8.4 52.57 21.57 51.59 21.78"/><polygon class="cls-3" points="51.62 21.86 46.35 8.97 50.14 1.46 51.04 1.91 47.45 9.01 52.55 21.48 51.62 21.86"/><polygon class="cls-3" points="51.66 21.94 44.23 10.16 46.66 2.1 47.62 2.39 45.32 10.01 52.51 21.41 51.66 21.94"/><polygon class="cls-3" points="51.71 22.01 42.35 11.7 43.35 3.34 44.34 3.46 43.4 11.36 52.45 21.34 51.71 22.01"/><polygon class="cls-3" points="51.78 22.07 40.77 13.54 40.3 5.13 41.29 5.08 41.74 13.03 52.39 21.28 51.78 22.07"/><polygon class="cls-3" points="51.85 22.11 39.53 15.63 37.6 7.43 38.58 7.2 40.4 14.95 52.32 21.23 51.85 22.11"/><polygon class="cls-3" points="51.93 22.15 38.67 17.9 35.35 10.16 36.27 9.77 39.41 17.08 52.24 21.2 51.93 22.15"/><polygon class="cls-3" points="52.02 22.17 38.22 20.28 33.61 13.24 34.44 12.7 38.8 19.36 52.15 21.18 52.02 22.17"/><polygon class="cls-3" points="38.19 22.71 32.42 16.58 33.15 15.9 38.6 21.7 52.06 21.17 52.1 22.17 38.19 22.71"/><polygon class="cls-3" points="38.58 25.11 31.84 20.07 32.44 19.27 38.81 24.04 51.98 21.18 52.19 22.16 38.58 25.11"/><polygon class="cls-3" points="39.38 27.4 31.87 23.61 32.32 22.72 39.42 26.3 51.89 21.21 52.27 22.14 39.38 27.4"/><polygon class="cls-3" points="40.57 29.52 32.51 27.09 32.8 26.14 40.42 28.43 51.82 21.25 52.35 22.09 40.57 29.52"/><polygon class="cls-3" points="42.11 31.4 33.75 30.41 33.87 29.42 41.77 30.35 51.75 21.3 52.42 22.04 42.11 31.4"/><polygon class="cls-3" points="35.55 33.46 35.49 32.46 43.44 32.01 51.69 21.37 52.48 21.98 43.95 32.98 35.55 33.46"/><polygon class="cls-3" points="37.84 36.15 37.61 35.18 45.36 33.36 51.64 21.44 52.52 21.91 46.03 34.23 37.84 36.15"/><polygon class="cls-3" points="40.57 38.41 40.18 37.49 47.49 34.35 51.61 21.52 52.56 21.82 48.31 35.09 40.57 38.41"/><polygon class="cls-3" points="43.65 40.15 43.11 39.31 49.77 34.95 51.59 21.61 52.58 21.74 50.69 35.54 43.65 40.15"/><polygon class="cls-3" points="46.99 41.33 46.3 40.6 52.11 35.15 51.58 21.69 52.58 21.65 53.12 35.57 46.99 41.33"/><polygon class="cls-3" points="50.48 41.92 49.68 41.32 54.45 34.94 51.59 21.78 52.57 21.57 55.52 35.18 50.48 41.92"/><polygon class="cls-3" points="54.02 41.89 53.13 41.44 56.72 34.33 51.62 21.86 52.55 21.48 57.81 34.38 54.02 41.89"/><polygon class="cls-3" points="57.5 41.24 56.55 40.96 58.84 33.34 51.66 21.94 52.51 21.41 59.93 33.19 57.5 41.24"/><polygon class="cls-3" points="60.82 40.01 59.83 39.89 60.76 31.98 51.71 22.01 52.45 21.34 61.81 31.65 60.82 40.01"/><polygon class="cls-3" points="62.87 38.27 62.42 30.32 51.78 22.07 52.39 21.28 63.4 29.81 63.87 38.21 62.87 38.27"/><path class="cls-1" d="M607,430.76a21.05,21.05,0,1,1,21.05-21.05A21.07,21.07,0,0,1,607,430.76Zm0-40.1a19.05,19.05,0,1,0,19.05,19.05A19.07,19.07,0,0,0,607,390.66Z" transform="translate(-554.94 -388.03)"/><path class="cls-2" d="M607,392.82h-0.65a6.74,6.74,0,0,1-1.82-.3,8.36,8.36,0,0,1-2.5-1.43,11.28,11.28,0,0,0-3.05-1.91,7.62,7.62,0,0,0-4.13-.11c-1.45.35-2.59,1.44-3.94,2.53a7.69,7.69,0,0,1-2.38,1.32,7.57,7.57,0,0,1-2.77.35,8.52,8.52,0,0,1-1.41-.17,7.72,7.72,0,0,1-1.37-.47,11,11,0,0,1-2.33-1.58,10.13,10.13,0,0,0-2.11-1.48,5.86,5.86,0,0,0-2.41-.58l-0.31,0h-0.3l-0.66,0a7.16,7.16,0,0,0-1.17.25,6.83,6.83,0,0,0-2.12,1.15c-0.66.49-1.28,1.07-2,1.54a6.93,6.93,0,0,1-2.3,1,8.24,8.24,0,0,1-4.5-.29,10.54,10.54,0,0,1-3.09-2.15,8.08,8.08,0,0,0-2.34-1.53,7.37,7.37,0,0,0-1.76-.43l-0.65-.06h0.65a6.73,6.73,0,0,1,1.82.3,8.36,8.36,0,0,1,2.51,1.43,11.32,11.32,0,0,0,3.05,1.91,7.63,7.63,0,0,0,4.13.11c1.45-.35,2.59-1.43,3.94-2.53a7.72,7.72,0,0,1,2.37-1.32,7.84,7.84,0,0,1,1.39-.31l0.66,0,0.36,0,0.35,0a6.81,6.81,0,0,1,2.78.64,10.89,10.89,0,0,1,2.34,1.58,10.11,10.11,0,0,0,2.11,1.48,6.8,6.8,0,0,0,1.17.42,7.44,7.44,0,0,0,1.25.16,6.39,6.39,0,0,0,4.57-1.42c0.66-.49,1.28-1.07,2-1.53a6.9,6.9,0,0,1,2.3-1,7.82,7.82,0,0,1,1.2-.17,7.92,7.92,0,0,1,1.15,0,7.21,7.21,0,0,1,2.15.45,10.54,10.54,0,0,1,3.09,2.15,8.09,8.09,0,0,0,2.34,1.53,7.35,7.35,0,0,0,1.76.43Z" transform="translate(-554.94 -388.03)"/><path class="cls-2" d="M607,403.58h-0.65a6.74,6.74,0,0,1-1.82-.3,8.36,8.36,0,0,1-2.5-1.43,11.28,11.28,0,0,0-3.05-1.91,7.62,7.62,0,0,0-4.13-.11c-1.45.35-2.59,1.44-3.94,2.53a7.69,7.69,0,0,1-2.38,1.32,7.57,7.57,0,0,1-2.77.35,8.52,8.52,0,0,1-1.41-.17,7.72,7.72,0,0,1-1.37-.47,11,11,0,0,1-2.33-1.58,10.13,10.13,0,0,0-2.11-1.48,5.86,5.86,0,0,0-2.41-.58l-0.31,0h-0.3l-0.66,0a7.16,7.16,0,0,0-1.17.25,6.83,6.83,0,0,0-2.12,1.15c-0.66.49-1.28,1.07-2,1.54a6.93,6.93,0,0,1-2.3,1,8.24,8.24,0,0,1-4.5-.29,10.54,10.54,0,0,1-3.09-2.15,8.08,8.08,0,0,0-2.34-1.53,7.37,7.37,0,0,0-1.76-.43l-0.65-.06h0.65a6.73,6.73,0,0,1,1.82.3,8.36,8.36,0,0,1,2.51,1.43A11.32,11.32,0,0,0,563,402.9a7.63,7.63,0,0,0,4.13.11c1.45-.35,2.59-1.43,3.94-2.53a7.72,7.72,0,0,1,2.37-1.32,7.84,7.84,0,0,1,1.39-.31l0.66,0,0.36,0,0.35,0a6.81,6.81,0,0,1,2.78.64,10.89,10.89,0,0,1,2.34,1.58,10.11,10.11,0,0,0,2.11,1.48,6.8,6.8,0,0,0,1.17.42,7.44,7.44,0,0,0,1.25.16,6.39,6.39,0,0,0,4.57-1.42c0.66-.49,1.28-1.07,2-1.53a6.9,6.9,0,0,1,2.3-1,7.82,7.82,0,0,1,1.2-.17,7.92,7.92,0,0,1,1.15,0,7.21,7.21,0,0,1,2.15.45,10.54,10.54,0,0,1,3.09,2.15,8.09,8.09,0,0,0,2.34,1.53,7.35,7.35,0,0,0,1.76.43Z" transform="translate(-554.94 -388.03)"/><path class="cls-2" d="M607,414.34h-0.65a6.74,6.74,0,0,1-1.82-.3,8.36,8.36,0,0,1-2.5-1.43,11.28,11.28,0,0,0-3.05-1.91,7.62,7.62,0,0,0-4.13-.11c-1.45.35-2.59,1.44-3.94,2.53a7.69,7.69,0,0,1-2.38,1.32,7.57,7.57,0,0,1-2.77.35,8.52,8.52,0,0,1-1.41-.17,7.72,7.72,0,0,1-1.37-.47,11,11,0,0,1-2.33-1.58,10.13,10.13,0,0,0-2.11-1.48,5.86,5.86,0,0,0-2.41-.58l-0.31,0h-0.3l-0.66,0a7.16,7.16,0,0,0-1.17.25,6.83,6.83,0,0,0-2.12,1.15c-0.66.49-1.28,1.07-2,1.54a6.93,6.93,0,0,1-2.3,1,8.24,8.24,0,0,1-4.5-.29,10.54,10.54,0,0,1-3.09-2.15,8.08,8.08,0,0,0-2.34-1.53,7.37,7.37,0,0,0-1.76-.43l-0.65-.06h0.65a6.73,6.73,0,0,1,1.82.3,8.36,8.36,0,0,1,2.51,1.43,11.32,11.32,0,0,0,3.05,1.91,7.63,7.63,0,0,0,4.13.11c1.45-.35,2.59-1.43,3.94-2.53a7.72,7.72,0,0,1,2.37-1.32,7.84,7.84,0,0,1,1.39-.31l0.66,0,0.36,0,0.35,0a6.81,6.81,0,0,1,2.78.64,10.89,10.89,0,0,1,2.34,1.58,10.11,10.11,0,0,0,2.11,1.48,6.8,6.8,0,0,0,1.17.42,7.44,7.44,0,0,0,1.25.16,6.39,6.39,0,0,0,4.57-1.42c0.66-.49,1.28-1.07,2-1.53a6.9,6.9,0,0,1,2.3-1,7.82,7.82,0,0,1,1.2-.17,7.92,7.92,0,0,1,1.15,0,7.21,7.21,0,0,1,2.15.45,10.54,10.54,0,0,1,3.09,2.15,8.09,8.09,0,0,0,2.34,1.53,7.35,7.35,0,0,0,1.76.43Z" transform="translate(-554.94 -388.03)"/><path class="cls-2" d="M607,425.1h-0.65a6.74,6.74,0,0,1-1.82-.3,8.36,8.36,0,0,1-2.5-1.43,11.28,11.28,0,0,0-3.05-1.91,7.62,7.62,0,0,0-4.13-.11c-1.45.35-2.59,1.44-3.94,2.53a7.69,7.69,0,0,1-2.38,1.32,7.57,7.57,0,0,1-2.77.35,8.52,8.52,0,0,1-1.41-.17,7.73,7.73,0,0,1-1.37-.47,11,11,0,0,1-2.33-1.58,10.13,10.13,0,0,0-2.11-1.48,5.86,5.86,0,0,0-2.41-.58l-0.31,0h-0.3l-0.66,0a7.16,7.16,0,0,0-1.17.25,6.83,6.83,0,0,0-2.12,1.15c-0.66.49-1.28,1.07-2,1.54a6.93,6.93,0,0,1-2.3,1,8.24,8.24,0,0,1-4.5-.29,10.54,10.54,0,0,1-3.09-2.15,8.08,8.08,0,0,0-2.34-1.53,7.37,7.37,0,0,0-1.76-.43l-0.65-.06h0.65a6.73,6.73,0,0,1,1.82.3,8.36,8.36,0,0,1,2.51,1.43,11.32,11.32,0,0,0,3.05,1.91,7.63,7.63,0,0,0,4.13.11c1.45-.35,2.59-1.43,3.94-2.53a7.72,7.72,0,0,1,2.37-1.32,7.84,7.84,0,0,1,1.39-.31l0.66,0,0.36,0,0.35,0A6.81,6.81,0,0,1,579,421a10.89,10.89,0,0,1,2.34,1.58,10.11,10.11,0,0,0,2.11,1.48,6.8,6.8,0,0,0,1.17.42,7.44,7.44,0,0,0,1.25.16,6.39,6.39,0,0,0,4.57-1.42c0.66-.49,1.28-1.07,2-1.53a6.9,6.9,0,0,1,2.3-1,7.82,7.82,0,0,1,1.2-.17,7.92,7.92,0,0,1,1.15,0,7.21,7.21,0,0,1,2.15.45,10.54,10.54,0,0,1,3.09,2.15,8.09,8.09,0,0,0,2.34,1.53,7.35,7.35,0,0,0,1.76.43Z" transform="translate(-554.94 -388.03)"/></svg>