<svg xmlns="http://www.w3.org/2000/svg" viewBox="0 0 98.14 127.01"><defs><style>.cls-1{fill:#fff;}.cls-2{fill:#161616;}</style></defs><title>Asset 2</title><g id="Layer_2" data-name="Layer 2"><g id="Layer_1-2" data-name="Layer 1"><polygon class="cls-1" points="92.37 69.28 80.82 69.28 80.82 63.5 75.05 63.5 75.05 57.73 69.28 57.73 69.28 121.23 57.73 121.23 54.65 95.06 43.1 95.06 40.41 92.37 34.64 86.6 23.09 86.6 17.32 80.82 11.55 80.82 0 69.28 5.77 34.64 11.55 17.32 17.32 5.77 63.5 5.77 69.28 17.32 75.05 28.86 80.82 40.41 86.6 51.96 92.37 57.73 92.37 69.28"/><rect class="cls-2" x="63.5" y="121.23" width="5.77" height="5.77"/><rect class="cls-2" x="57.73" y="121.23" width="5.77" height="5.77"/><rect class="cls-2" x="69.28" y="115.46" width="5.77" height="5.77"/><rect class="cls-2" x="51.96" y="115.46" width="5.77" height="5.77"/><rect class="cls-2" x="69.28" y="109.69" width="5.77" height="5.77"/><rect class="cls-2" x="51.96" y="109.69" width="5.77" height="5.77"/><rect class="cls-2" x="69.28" y="103.92" width="5.77" height="5.77"/><rect class="cls-2" x="51.96" y="103.92" width="5.77" height="5.77"/><rect class="cls-2" x="69.28" y="98.14" width="5.77" height="5.77"/><rect class="cls-2" x="51.96" y="98.14" width="5.77" height="5.77"/><rect class="cls-2" x="69.28" y="92.37" width="5.77" height="5.77"/><rect class="cls-2" x="51.96" y="92.37" width="5.77" height="5.77"/><rect class="cls-2" x="46.18" y="92.37" width="5.77" height="5.77"/><rect class="cls-2" x="40.41" y="92.37" width="5.77" height="5.77"/><rect class="cls-2" x="69.28" y="86.6" width="5.77" height="5.77"/><rect class="cls-2" x="51.96" y="86.6" width="5.77" height="5.77"/><rect class="cls-2" x="34.64" y="86.6" width="5.77" height="5.77"/><rect class="cls-2" x="28.87" y="86.6" width="5.77" height="5.77"/><rect class="cls-2" x="23.09" y="86.6" width="5.77" height="5.77"/><rect class="cls-2" x="69.28" y="80.82" width="5.77" height="5.77"/><rect class="cls-2" x="51.96" y="80.82" width="5.77" height="5.77"/><rect class="cls-2" x="34.64" y="80.82" width="5.77" height="5.77"/><rect class="cls-2" x="17.32" y="80.82" width="5.77" height="5.77"/><rect class="cls-2" x="11.55" y="80.82" width="5.77" height="5.77"/><rect class="cls-2" x="69.28" y="75.05" width="5.77" height="5.77"/><rect class="cls-2" x="51.96" y="75.05" width="5.77" height="5.77"/><rect class="cls-2" x="34.64" y="75.05" width="5.77" height="5.77"/><rect class="cls-2" x="17.32" y="75.05" width="5.77" height="5.77"/><rect class="cls-2" x="5.77" y="75.05" width="5.77" height="5.77"/><rect class="cls-2" x="92.37" y="69.28" width="5.77" height="5.77"/><rect class="cls-2" x="86.6" y="69.28" width="5.77" height="5.77"/><rect class="cls-2" x="80.82" y="69.28" width="5.77" height="5.77"/><rect class="cls-2" x="69.28" y="69.28" width="5.77" height="5.77"/><rect class="cls-2" x="51.96" y="69.28" width="5.77" height="5.77"/><rect class="cls-2" x="34.64" y="69.28" width="5.77" height="5.77"/><rect class="cls-2" x="34.64" y="63.5" width="5.77" height="5.77"/><rect class="cls-2" x="17.32" y="69.28" width="5.77" height="5.77"/><rect class="cls-2" y="69.28" width="5.77" height="5.77"/><rect class="cls-2" x="92.37" y="63.5" width="5.77" height="5.77"/><rect class="cls-2" x="75.05" y="63.5" width="5.77" height="5.77"/><rect class="cls-2" x="69.28" y="63.5" width="5.77" height="5.77"/><rect class="cls-2" x="17.32" y="63.5" width="5.77" height="5.77"/><rect class="cls-2" x="17.32" y="57.73" width="5.77" height="5.77"/><rect class="cls-2" y="63.5" width="5.77" height="5.77"/><rect class="cls-2" x="92.37" y="57.73" width="5.77" height="5.77"/><rect class="cls-2" x="69.28" y="57.73" width="5.77" height="5.77"/><rect class="cls-2" y="57.73" width="5.77" height="5.77"/><rect class="cls-2" x="86.6" y="51.96" width="5.77" height="5.77"/><rect class="cls-2" y="51.96" width="5.77" height="5.77"/><rect class="cls-2" x="80.82" y="46.18" width="5.77" height="5.77"/><rect class="cls-2" y="46.18" width="5.77" height="5.77"/><rect class="cls-2" x="80.82" y="40.41" width="5.77" height="5.77"/><rect class="cls-2" y="40.41" width="5.77" height="5.77"/><rect class="cls-2" x="75.05" y="34.64" width="5.77" height="5.77"/><rect class="cls-2" y="34.64" width="5.77" height="5.77"/><rect class="cls-2" x="75.05" y="28.87" width="5.77" height="5.77"/><rect class="cls-2" x="5.77" y="28.87" width="5.77" height="5.77"/><rect class="cls-2" x="69.28" y="23.09" width="5.77" height="5.77"/><rect class="cls-2" x="5.77" y="23.09" width="5.77" height="5.77"/><rect class="cls-2" x="69.28" y="17.32" width="5.77" height="5.77"/><rect class="cls-2" x="5.77" y="17.32" width="5.77" height="5.77"/><rect class="cls-2" x="63.5" y="11.55" width="5.77" height="5.77"/><rect class="cls-2" x="11.55" y="11.55" width="5.77" height="5.77"/><rect class="cls-2" x="63.5" y="5.77" width="5.77" height="5.77"/><rect class="cls-2" x="11.55" y="5.77" width="5.77" height="5.77"/><rect class="cls-2" x="63.5" width="5.77" height="5.77"/><rect class="cls-2" x="57.73" width="5.77" height="5.77"/><rect class="cls-2" x="51.96" width="5.77" height="5.77"/><rect class="cls-2" x="46.18" width="5.77" height="5.77"/><rect class="cls-2" x="40.41" width="5.77" height="5.77"/><rect class="cls-2" x="34.64" width="5.77" height="5.77"/><rect class="cls-2" x="28.87" width="5.77" height="5.77"/><rect class="cls-2" x="23.09" width="5.77" height="5.77"/><rect class="cls-2" x="17.32" width="5.77" height="5.77"/><rect class="cls-2" x="11.55" width="5.77" height="5.77"/></g></g></svg>