<svg id="Layer_1" data-name="Layer 1" xmlns="http://www.w3.org/2000/svg" viewBox="0 0 122.24 126.47"><defs><style>.cls-1{fill:#4e888c;}.cls-2{fill:#06251c;}.cls-3{fill:#65b891;}</style></defs><title>Att_Chair</title><rect class="cls-1" x="812.88" y="214.01" width="78.43" height="30.45" rx="14.64" ry="14.64" transform="translate(305.63 -764.83) rotate(90)"/><line class="cls-1" x1="4.15" y1="122.11" x2="22.36" y2="88.97"/><path class="cls-1" d="M779.84,268.24a4.15,4.15,0,0,1-3.64-6.15l18.2-33.14a4.15,4.15,0,1,1,7.28,4l-18.2,33.14A4.15,4.15,0,0,1,779.84,268.24Z" transform="translate(-775.69 -141.97)"/><rect class="cls-2" x="12.12" y="75.31" width="72.79" height="51.16" rx="15.01" ry="15.01"/><path class="cls-1" d="M816.83,216.66H793.91a7.67,7.67,0,0,0-7.67,7.67v2.93h0a3.05,3.05,0,0,0,3.05,3.05h29.3a8.26,8.26,0,0,0,8.26-8.26v-2.34a3.05,3.05,0,0,0-3.05-3.05h-7Z" transform="translate(-775.69 -141.97)"/><rect class="cls-2" x="97.8" y="120.95" width="24.44" height="5.52"/><path class="cls-2" d="M860.48,179a6.59,6.59,0,1,1,6.59-6.59A6.59,6.59,0,0,1,860.48,179Zm0-12.86a6.28,6.28,0,1,0,6.28,6.28A6.28,6.28,0,0,0,860.48,166.16Z" transform="translate(-775.69 -141.97)"/><path class="cls-2" d="M887.25,265.69h-3.08V156.07a11,11,0,0,0-22,0v5.84h-3.08v-5.84a14.1,14.1,0,0,1,28.19,0V265.69Z" transform="translate(-775.69 -141.97)"/><path class="cls-3" d="M859.63,154.68l-18.44,18.44a1.2,1.2,0,0,0,.85,2h36.87a1.2,1.2,0,0,0,.85-2l-18.44-18.44A1.2,1.2,0,0,0,859.63,154.68Z" transform="translate(-775.69 -141.97)"/></svg>