<svg id="Layer_1" data-name="Layer 1" xmlns="http://www.w3.org/2000/svg" viewBox="0 0 85.97 114.03"><defs><style>.cls-1{fill:#06251c;}.cls-2{fill:#4e888c;}.cls-3{fill:#65b891;}</style></defs><title>Kit_Sink</title><path class="cls-1" d="M441.92,831.1h-1.27V813.82c0-2.88,2.71-5.21,6.05-5.21s6.05,2.34,6.05,5.21v1.81h-1.27v-1.81c0-2.17-2.14-3.94-4.78-3.94s-4.78,1.77-4.78,3.94V831.1Z" transform="translate(-414.17 -808.61)"/><path class="cls-2" d="M453.35,817.25h-2.46a0.3,0.3,0,0,1-.32-0.27l0.62-2.2a0.3,0.3,0,0,1,.32-0.27h1.22a0.3,0.3,0,0,1,.32.27l0.62,2.2A0.3,0.3,0,0,1,453.35,817.25Z" transform="translate(-414.17 -808.61)"/><path class="cls-1" d="M434.73,828l-0.47-2.93a0.28,0.28,0,0,1,.28-0.32h4a0.28,0.28,0,0,1,.28.32L438.3,828a0.28,0.28,0,0,1-.28.24h-3A0.28,0.28,0,0,1,434.73,828Z" transform="translate(-414.17 -808.61)"/><path class="cls-1" d="M444.6,828l-0.47-2.93a0.28,0.28,0,0,1,.28-0.32h4a0.28,0.28,0,0,1,.28.32L448.17,828a0.28,0.28,0,0,1-.28.24h-3A0.28,0.28,0,0,1,444.6,828Z" transform="translate(-414.17 -808.61)"/><rect class="cls-3" x="16.5" y="19.32" width="52.97" height="14.17" rx="6.42" ry="6.42"/><rect class="cls-2" x="2.04" y="98.56" width="81.89" height="15.46"/><rect class="cls-2" x="2.04" y="83.1" width="81.89" height="15.46"/><rect class="cls-2" x="2.04" y="67.64" width="81.89" height="15.46"/><rect class="cls-2" x="2.04" y="52.18" width="81.89" height="15.46"/><rect class="cls-2" x="2.04" y="36.71" width="81.89" height="15.46"/><path class="cls-2" d="M9.24,21.25H76.73a7.2,7.2,0,0,1,7.2,7.2v8.26a0,0,0,0,1,0,0H2a0,0,0,0,1,0,0V28.45A7.2,7.2,0,0,1,9.24,21.25Z"/><path class="cls-3" d="M499.34,908H415a0.79,0.79,0,0,1,0-1.59h84.38A0.79,0.79,0,0,1,499.34,908Z" transform="translate(-414.17 -808.61)"/><path class="cls-3" d="M499.34,892.51H415a0.79,0.79,0,0,1,0-1.59h84.38A0.79,0.79,0,1,1,499.34,892.51Z" transform="translate(-414.17 -808.61)"/><path class="cls-3" d="M499.34,877H415a0.79,0.79,0,1,1,0-1.59h84.38A0.79,0.79,0,1,1,499.34,877Z" transform="translate(-414.17 -808.61)"/><path class="cls-3" d="M499.34,861.58H415a0.79,0.79,0,0,1,0-1.59h84.38A0.79,0.79,0,0,1,499.34,861.58Z" transform="translate(-414.17 -808.61)"/><path class="cls-3" d="M499.34,846.12H415a0.79,0.79,0,0,1,0-1.59h84.38A0.79,0.79,0,0,1,499.34,846.12Z" transform="translate(-414.17 -808.61)"/><path class="cls-1" d="M462.82,833.83H451.48a0.79,0.79,0,0,1,0-1.59h11.34A0.79,0.79,0,0,1,462.82,833.83Z" transform="translate(-414.17 -808.61)"/><path class="cls-1" d="M462.82,849.29H451.48a0.79,0.79,0,0,1,0-1.59h11.34A0.79,0.79,0,0,1,462.82,849.29Z" transform="translate(-414.17 -808.61)"/><path class="cls-1" d="M462.82,864.76H451.48a0.79,0.79,0,1,1,0-1.59h11.34A0.79,0.79,0,0,1,462.82,864.76Z" transform="translate(-414.17 -808.61)"/><path class="cls-1" d="M462.82,880.22H451.48a0.79,0.79,0,0,1,0-1.59h11.34A0.79,0.79,0,1,1,462.82,880.22Z" transform="translate(-414.17 -808.61)"/><path class="cls-1" d="M462.82,895.68H451.48a0.79,0.79,0,0,1,0-1.59h11.34A0.79,0.79,0,0,1,462.82,895.68Z" transform="translate(-414.17 -808.61)"/><path class="cls-1" d="M462.82,911.14H451.48a0.79,0.79,0,1,1,0-1.59h11.34A0.79,0.79,0,0,1,462.82,911.14Z" transform="translate(-414.17 -808.61)"/></svg>