<svg id="Layer_1" data-name="Layer 1" xmlns="http://www.w3.org/2000/svg" viewBox="0 0 86.98 113.14"><defs><style>.cls-1{fill:#06251c;}.cls-2{fill:#65b891;}.cls-3{fill:#4e888c;}</style></defs><title>T2_Sink</title><rect class="cls-1" x="41.97" y="2.12" width="2" height="16.86"/><path class="cls-2" d="M863.49,380.65h-3.88a0.47,0.47,0,0,1-.51-0.43l1-3.46a0.47,0.47,0,0,1,.51-0.43h1.93a0.47,0.47,0,0,1,.51.43l1,3.46A0.47,0.47,0,0,1,863.49,380.65Z" transform="translate(-818.57 -374.56)"/><path class="cls-1" d="M853.47,387.68l-0.56-3.52a0.34,0.34,0,0,1,.33-0.39H858a0.34,0.34,0,0,1,.33.39l-0.56,3.52a0.34,0.34,0,0,1-.33.28h-3.63A0.34,0.34,0,0,1,853.47,387.68Z" transform="translate(-818.57 -374.56)"/><path class="cls-1" d="M865.34,387.68l-0.56-3.52a0.34,0.34,0,0,1,.33-0.39h4.75a0.34,0.34,0,0,1,.33.39l-0.56,3.52a0.34,0.34,0,0,1-.33.28h-3.63A0.34,0.34,0,0,1,865.34,387.68Z" transform="translate(-818.57 -374.56)"/><rect class="cls-2" x="2.93" y="16.49" width="81.11" height="95.64"/><path class="cls-1" d="M862.07,487.7a1,1,0,0,1-1-1V391.05a1,1,0,1,1,2,0v95.64A1,1,0,0,1,862.07,487.7Z" transform="translate(-818.57 -374.56)"/><circle class="cls-1" cx="22.75" cy="30.3" r="2.49"/><circle class="cls-1" cx="64.24" cy="30.3" r="2.49"/><rect class="cls-3" y="13.09" width="86.98" height="6.81" rx="0.76" ry="0.76"/><polygon class="cls-2" points="4.98 0 15.88 0 14.07 13.09 6.73 13.09 4.98 0"/><polygon class="cls-1" points="17.96 2.12 27.16 2.12 25.64 13.09 19.44 13.09 17.96 2.12"/></svg>