<svg id="Layer_1" data-name="Layer 1" xmlns="http://www.w3.org/2000/svg" viewBox="0 0 115.26 88.62"><defs><style>.cls-1{fill:#06251c;}.cls-2{fill:#4e888c;}.cls-3{fill:#ffc649;}.cls-4{fill:#65b891;}</style></defs><title>Att_Table</title><path class="cls-1" d="M759.53,275.49A1.5,1.5,0,0,1,758,274V219.55a1.5,1.5,0,0,1,3,0V274A1.5,1.5,0,0,1,759.53,275.49Z" transform="translate(-646.77 -186.86)"/><path class="cls-1" d="M759.53,223H649.27a2.5,2.5,0,0,1,0-5H759.53A2.5,2.5,0,0,1,759.53,223Z" transform="translate(-646.77 -186.86)"/><path class="cls-1" d="M649.27,275.49a1.5,1.5,0,0,1-1.5-1.5V219.55a1.5,1.5,0,0,1,3,0V274A1.5,1.5,0,0,1,649.27,275.49Z" transform="translate(-646.77 -186.86)"/><rect class="cls-2" x="45.14" y="27.9" width="24.98" height="3.29"/><rect class="cls-2" x="56.13" y="9.24" width="3" height="19.45"/><polygon class="cls-3" points="64.56 0 57.78 0 57.48 0 50.7 0 43.63 15.93 57.48 15.93 57.78 15.93 71.63 15.93 64.56 0"/><line class="cls-4" x1="2.5" y1="42.05" x2="112.76" y2="42.05"/><rect class="cls-1" x="2.5" y="41.05" width="110.26" height="2"/></svg>