<svg id="Layer_1" data-name="Layer 1" xmlns="http://www.w3.org/2000/svg" viewBox="0 0 58.71 30.24"><defs><style>.cls-1{fill:#ffc649;}.cls-2{fill:#06251c;}</style></defs><title>B1_Light</title><path class="cls-1" d="M607.74,498.13H557.19c0,0.24,0,.47,0,0.71a25.29,25.29,0,1,0,50.58,0C607.75,498.6,607.74,498.36,607.74,498.13Z" transform="translate(-553.11 -495.58)"/><path class="cls-2" d="M582.46,524.86a26,26,0,0,1-26-26c0-.18,0-0.35,0-0.53l0-.91h52l0,0.91c0,0.17,0,.35,0,0.53A26,26,0,0,1,582.46,524.86Zm-24.57-26a24.57,24.57,0,0,0,49.13,0H557.9Z" transform="translate(-553.11 -495.58)"/><path class="cls-2" d="M609.27,500.67H555.65a2.54,2.54,0,0,1,0-5.09h53.62A2.54,2.54,0,0,1,609.27,500.67Z" transform="translate(-553.11 -495.58)"/><rect class="cls-2" x="26.11" y="28.31" width="6.49" height="1.94" rx="0.97" ry="0.97"/></svg>