<svg id="Layer_1" data-name="Layer 1" xmlns="http://www.w3.org/2000/svg" viewBox="0 0 82.69 124.16"><defs><style>.cls-1{fill:#06251c;}.cls-2{fill:#ffc649;stroke:#06251c;stroke-miterlimit:10;}.cls-3{fill:#65b891;}.cls-4{fill:#4e888c;}</style></defs><title>B2_Table</title><rect class="cls-1" x="29.61" y="118.85" width="23.5" height="5.31"/><rect class="cls-1" x="39.88" y="24.44" width="2.96" height="97.06"/><path class="cls-2" d="M998.66,595.43a7.23,7.23,0,1,1,7.23-7.23A7.24,7.24,0,0,1,998.66,595.43Z" transform="translate(-957.3 -580.48)"/><path class="cls-3" d="M999.48,606.43l17.73-17.73a1.15,1.15,0,0,0-.82-2H980.93a1.15,1.15,0,0,0-.82,2l17.73,17.73A1.15,1.15,0,0,0,999.48,606.43Z" transform="translate(-957.3 -580.48)"/><polygon class="cls-1" points="82.69 123.42 79.69 123.42 79.69 65.96 3 65.96 3 123.42 0 123.42 0 62.96 82.69 62.96 82.69 123.42"/><rect class="cls-1" x="1.5" y="64.46" width="79.69" height="12.7"/><rect class="cls-4" x="3.08" y="65.24" width="34.06" height="9.15"/><rect class="cls-4" x="45.56" y="65.24" width="34.06" height="9.15"/><circle class="cls-1" cx="20.11" cy="69.81" r="1.28"/><circle class="cls-1" cx="62.41" cy="69.81" r="1.28"/></svg>