<svg id="Layer_1" data-name="Layer 1" xmlns="http://www.w3.org/2000/svg" viewBox="0 0 58.71 30.24"><defs><style>.cls-1{fill:#ffc649;}.cls-2{fill:#06251c;}</style></defs><title>Comp_Light</title><path class="cls-1" d="M544.58,282.46H494c0,0.24,0,.47,0,0.71a25.29,25.29,0,1,0,50.58,0C544.6,282.93,544.59,282.7,544.58,282.46Z" transform="translate(-489.95 -279.92)"/><path class="cls-2" d="M519.31,309.19a26,26,0,0,1-26-26c0-.18,0-0.35,0-0.53l0-.91h52l0,0.91c0,0.17,0,.35,0,0.53A26,26,0,0,1,519.31,309.19Zm-24.57-26a24.57,24.57,0,0,0,49.13,0H494.74Z" transform="translate(-489.95 -279.92)"/><path class="cls-2" d="M546.12,285H492.5a2.54,2.54,0,1,1,0-5.09h53.62A2.54,2.54,0,1,1,546.12,285Z" transform="translate(-489.95 -279.92)"/><rect class="cls-2" x="26.11" y="28.31" width="6.49" height="1.94" rx="0.97" ry="0.97"/></svg>