<svg id="Layer_1" data-name="Layer 1" xmlns="http://www.w3.org/2000/svg" viewBox="0 0 25.16 30.85"><defs><style>.cls-1{fill:#06251c;}.cls-2{fill:#ffc649;}.cls-3{fill:#4e888c;}</style></defs><title>Comp_Router</title><path class="cls-1" d="M480.92,469.38c1.06,0.72,2.07,1.49,3.09,2.25,0.24,0.21.43,0.46,0.66,0.67l0.67,0.67,1.34,1.34,5.34,5.34H491.2l5.32-5.32,1.33-1.33,0.66-.66c0.23-.21.42-0.47,0.67-0.66,1-.76,2-1.53,3.07-2.25-0.72,1.05-1.49,2.06-2.25,3.07-0.2.24-.45,0.43-0.66,0.67l-0.66.66-1.33,1.33L492,480.47l-0.41.41-0.41-.41-5.34-5.34-1.34-1.34-0.67-.67c-0.21-.23-0.46-0.43-0.67-0.66C482.41,471.45,481.64,470.44,480.92,469.38Z" transform="translate(-479.03 -455.51)"/><rect class="cls-1" y="23.38" width="25.16" height="7.46" rx="1.05" ry="1.05"/><rect class="cls-2" x="1.85" y="25.12" width="7.57" height="3.78" rx="1.39" ry="1.39"/><path class="cls-3" d="M502.08,480.76H490.25a0.12,0.12,0,0,1,0-.24h11.83A0.12,0.12,0,0,1,502.08,480.76Z" transform="translate(-479.03 -455.51)"/><path class="cls-3" d="M502.08,481.57H490.25a0.12,0.12,0,1,1,0-.24h11.83A0.12,0.12,0,1,1,502.08,481.57Z" transform="translate(-479.03 -455.51)"/><path class="cls-3" d="M502.08,482.38H490.25a0.12,0.12,0,0,1,0-.24h11.83A0.12,0.12,0,0,1,502.08,482.38Z" transform="translate(-479.03 -455.51)"/><path class="cls-3" d="M502.08,483.2H490.25a0.12,0.12,0,0,1,0-.24h11.83A0.12,0.12,0,1,1,502.08,483.2Z" transform="translate(-479.03 -455.51)"/><path class="cls-3" d="M502.08,484H490.25a0.12,0.12,0,0,1,0-.24h11.83A0.12,0.12,0,0,1,502.08,484Z" transform="translate(-479.03 -455.51)"/><path class="cls-3" d="M502.08,484.82H490.25a0.12,0.12,0,0,1,0-.24h11.83A0.12,0.12,0,1,1,502.08,484.82Z" transform="translate(-479.03 -455.51)"/><path class="cls-2" d="M486.39,469.57a2.64,2.64,0,0,1,0-.61,2.26,2.26,0,0,1,.17-0.71,3.06,3.06,0,0,1,.48-0.83,4.89,4.89,0,0,1,1.92-1.4,6.44,6.44,0,0,1,1.29-.39,8.2,8.2,0,0,1,1.39-.14,8.34,8.34,0,0,1,1.36.14,6.34,6.34,0,0,1,1.29.39,4.88,4.88,0,0,1,1.92,1.4,3.06,3.06,0,0,1,.48.83,2.24,2.24,0,0,1,.17.7,2.64,2.64,0,0,1,0,.62,3.28,3.28,0,0,0-.17-0.57,2.53,2.53,0,0,0-.32-0.57,3.49,3.49,0,0,0-.56-0.61,4.81,4.81,0,0,0-.81-0.55,6.62,6.62,0,0,0-1-.43,7.89,7.89,0,0,0-1.14-.26,8.05,8.05,0,0,0-2.42,0,7.69,7.69,0,0,0-1.14.26,6.56,6.56,0,0,0-1,.43,4.78,4.78,0,0,0-.81.55,3.48,3.48,0,0,0-.56.61,2.55,2.55,0,0,0-.32.57A3.27,3.27,0,0,0,486.39,469.57Z" transform="translate(-479.03 -455.51)"/><path class="cls-2" d="M483.78,466.47v-0.24a2.5,2.5,0,0,1,0-.67,2.32,2.32,0,0,1,.11-0.48,2.72,2.72,0,0,1,.19-0.55,4.5,4.5,0,0,1,.74-1.19,6.16,6.16,0,0,1,1.23-1.11,8.06,8.06,0,0,1,1.62-.89,9.85,9.85,0,0,1,1.89-.55,10.48,10.48,0,0,1,4,0,9.74,9.74,0,0,1,1.89.55,8,8,0,0,1,1.62.89,6.15,6.15,0,0,1,1.23,1.11,4.49,4.49,0,0,1,.74,1.19,2.72,2.72,0,0,1,.19.55,2.29,2.29,0,0,1,.1.48,2.52,2.52,0,0,1,0,.68v0.24a5,5,0,0,0-.21-0.87,2.11,2.11,0,0,0-.17-0.43,2.45,2.45,0,0,0-.26-0.47,5.31,5.31,0,0,0-.83-1,6.89,6.89,0,0,0-1.22-.88,9.36,9.36,0,0,0-1.53-.69,11.23,11.23,0,0,0-1.75-.42,11.64,11.64,0,0,0-3.71,0,11.06,11.06,0,0,0-1.75.42,9.31,9.31,0,0,0-1.53.69,6.87,6.87,0,0,0-1.22.88,5.29,5.29,0,0,0-.83,1,2.45,2.45,0,0,0-.26.47,2.12,2.12,0,0,0-.17.42A5,5,0,0,0,483.78,466.47Z" transform="translate(-479.03 -455.51)"/><path class="cls-2" d="M482.35,462.37v-0.28a3,3,0,0,1,0-.79,2.71,2.71,0,0,1,.13-0.56,3.19,3.19,0,0,1,.24-0.64,5.37,5.37,0,0,1,.88-1.39,7.32,7.32,0,0,1,1.45-1.3,9.61,9.61,0,0,1,1.91-1,11.72,11.72,0,0,1,2.23-.64,12.45,12.45,0,0,1,4.76,0,11.61,11.61,0,0,1,2.23.64,9.58,9.58,0,0,1,1.91,1,7.31,7.31,0,0,1,1.45,1.3,5.36,5.36,0,0,1,.88,1.39,3.19,3.19,0,0,1,.24.64,2.69,2.69,0,0,1,.13.56,3,3,0,0,1,0,.8v0.28a5.86,5.86,0,0,0-.23-1,2.51,2.51,0,0,0-.2-0.51,2.92,2.92,0,0,0-.31-0.56,6.17,6.17,0,0,0-1-1.17,8.05,8.05,0,0,0-1.44-1.06,10.89,10.89,0,0,0-1.82-.84,13.09,13.09,0,0,0-2.08-.51,13.64,13.64,0,0,0-6.5.51,10.84,10.84,0,0,0-1.82.84,8,8,0,0,0-1.44,1.06,6.15,6.15,0,0,0-1,1.17,2.92,2.92,0,0,0-.31.56,2.52,2.52,0,0,0-.2.51A5.84,5.84,0,0,0,482.35,462.37Z" transform="translate(-479.03 -455.51)"/></svg>