<svg id="Layer_1" data-name="Layer 1" xmlns="http://www.w3.org/2000/svg" viewBox="0 0 70.9 48.43"><defs><style>.cls-1{fill:#4e888c;}.cls-2{fill:#06251c;}.cls-3{fill:#ffc649;}</style></defs><title>Comp_Monitor1</title><line class="cls-1" x1="35.45" y1="45.59" x2="35.45" y2="35.61"/><rect class="cls-2" x="34.13" y="35.61" width="2.65" height="9.99"/><rect class="cls-1" x="20.41" y="42.75" width="30.08" height="5.68" rx="2.84" ry="2.84"/><rect class="cls-3" x="1.32" y="1.32" width="68.26" height="34.28" rx="4.74" ry="4.74"/><path class="cls-2" d="M471.85,414.56H409.11a4.09,4.09,0,0,1-4.09-4.09V381.71a4.09,4.09,0,0,1,4.09-4.09h62.73a4.09,4.09,0,0,1,4.09,4.09v28.76A4.09,4.09,0,0,1,471.85,414.56Zm-62.73-34.28a1.44,1.44,0,0,0-1.44,1.44v28.76a1.44,1.44,0,0,0,1.44,1.44h62.73a1.44,1.44,0,0,0,1.44-1.44V381.71a1.44,1.44,0,0,0-1.44-1.44H409.11Z" transform="translate(-405.03 -377.63)"/><path class="cls-1" d="M423.28,399.06h-5.12v-0.84h1.69V394.8H419v-0.86h0.83v-0.85h1.72v5.11h1.72v0.86Z" transform="translate(-405.03 -377.63)"/><path class="cls-1" d="M430,397.34h-0.82v0.85h-0.85v0.86h-2.59v-0.82h-0.85v-0.86H424v-2.59h0.82v-0.84h0.88v-0.86h2.57v0.82h0.86v0.85H430v2.59Zm-1.72.85v-3.44h-0.85v-0.8h-1.69v3.43h0.86v0.82h1.68Z" transform="translate(-405.03 -377.63)"/><path class="cls-1" d="M436.48,399.06h-5.12v-0.84h1.69V394.8h-0.83v-0.86h0.83v-0.85h1.72v5.11h1.72v0.86Z" transform="translate(-405.03 -377.63)"/><path class="cls-1" d="M443.18,397.34h-0.82v0.85h-0.85v0.86h-2.59v-0.82h-0.85v-0.86H437.2v-2.59H438v-0.84h0.88v-0.86h2.57v0.82h0.86v0.85h0.85v2.59Zm-1.72.85v-3.44h-0.85v-0.8h-1.69v3.43h0.86v0.82h1.68Z" transform="translate(-405.03 -377.63)"/><path class="cls-1" d="M449.68,399.06h-5.12v-0.84h1.69V394.8h-0.83v-0.86h0.83v-0.85H448v5.11h1.72v0.86Z" transform="translate(-405.03 -377.63)"/><path class="cls-1" d="M456.38,397.34h-0.82v0.85h-0.85v0.86h-2.59v-0.82h-0.85v-0.86H450.4v-2.59h0.82v-0.84h0.88v-0.86h2.57v0.82h0.86v0.85h0.85v2.59Zm-1.72.85v-3.44h-0.85v-0.8h-1.69v3.43H453v0.82h1.68Z" transform="translate(-405.03 -377.63)"/><path class="cls-1" d="M462.88,399.06h-5.12v-0.84h1.69V394.8h-0.83v-0.86h0.83v-0.85h1.72v5.11h1.72v0.86Z" transform="translate(-405.03 -377.63)"/></svg>