<svg id="Layer_1" data-name="Layer 1" xmlns="http://www.w3.org/2000/svg" xmlns:xlink="http://www.w3.org/1999/xlink" viewBox="0 0 114.38 86.81"><defs><style>.cls-1{fill:none;}.cls-2{fill:#4e888c;}.cls-3{fill:#06251c;}.cls-4{fill:#f15d22;}.cls-5{clip-path:url(#clip-path);}.cls-6{fill:#ffc649;}.cls-7{fill:#65b891;}</style><clipPath id="clip-path" transform="translate(-430.95 -181.43)"><rect class="cls-1" x="496.2" y="200.1" width="38.38" height="49.46"/></clipPath></defs><title>heater</title><path class="cls-2" d="M54.51,0h40a19.89,19.89,0,0,1,19.89,19.89V86.81a0,0,0,0,1,0,0H54.51a0,0,0,0,1,0,0V0A0,0,0,0,1,54.51,0Z"/><path class="cls-3" d="M461.95,268.24h-31v-4.4a54.57,54.57,0,0,1,54.51-54.51v31a23.54,23.54,0,0,0-23.51,23.51v4.4Z" transform="translate(-430.95 -181.43)"/><rect class="cls-4" x="65.26" y="18.67" width="38.38" height="49.46"/><g class="cls-5"><path class="cls-6" d="M499.58,228.69a21,21,0,0,1,10.12,11.82c2.27-2.42,2-6.28.91-9.42s-2.83-6.12-3.08-9.42,1.79-7.16,5.11-7.31c-2.55,2.29-1.75,6.6.3,9.34s5.07,4.66,7.08,7.44a13.62,13.62,0,0,1,1.69,12.53,20,20,0,0,0,2.51-19.86c3.12,3.16,5.28,7.11,7.41,11l5.42,9.95a11.65,11.65,0,0,1,1.55,3.89c0.44,3.18-1.89,6.22-4.76,7.65s-6.18,1.61-9.39,1.77c-4.72.23-35.93,4.77-34.43-3.32,0.58-3.11,5.73-6.36,7.57-8.83a16.73,16.73,0,0,0,3.24-7.16C501.15,236.94,501.7,229.79,499.58,228.69Z" transform="translate(-430.95 -181.43)"/></g><path class="cls-7" d="M536.08,251.06H494.7V198.6h41.38v52.46Zm-38.38-3h35.38V201.6H497.7v46.46Z" transform="translate(-430.95 -181.43)"/><path class="cls-1" d="M536.08,251.06H494.7V198.6h41.38v52.46Zm-38.38-3h35.38V201.6H497.7v46.46Z" transform="translate(-430.95 -181.43)"/></svg>