<svg id="Layer_1" data-name="Layer 1" xmlns="http://www.w3.org/2000/svg" viewBox="0 0 85.97 191.44"><defs><style>.cls-1{fill:#4e888c;}.cls-2{fill:#ffc649;}.cls-3{fill:#06251c;}</style></defs><title>Kit_Fridge</title><rect class="cls-1" x="0.77" y="31.91" width="84.42" height="159.53" rx="2.87" ry="2.87"/><path class="cls-2" d="M733.48,821.44H649.1a0.79,0.79,0,0,1,0-1.59h84.38A0.79,0.79,0,0,1,733.48,821.44Z" transform="translate(-648.31 -731.2)"/><rect class="cls-3" x="74.4" y="38.91" width="4.14" height="45.23"/><rect class="cls-3" x="74.4" y="96.8" width="4.14" height="63.59"/><path class="cls-1" d="M659,759.31s0.24-.43.6-1.18a17.47,17.47,0,0,0,1.18-3.18,13.83,13.83,0,0,0,.36-2.16,11,11,0,0,0-.09-2.39,16.37,16.37,0,0,0-.62-2.51c-0.27-.86-0.61-1.73-1-2.61s-0.69-1.79-1-2.71a17.2,17.2,0,0,1-.71-2.81,10.43,10.43,0,0,1-.11-2.78,7.68,7.68,0,0,1,.62-2.42,6.17,6.17,0,0,1,2.32-2.82,4.47,4.47,0,0,1,.91-0.43l0.33-.11-0.28.2a6.17,6.17,0,0,0-.71.64,6.56,6.56,0,0,0-1.48,2.89,8.27,8.27,0,0,0-.22,2.12,12.23,12.23,0,0,0,.35,2.36,23.78,23.78,0,0,0,.8,2.51c0.31,0.86.68,1.73,1,2.63s0.68,1.83,1,2.78a14,14,0,0,1,.52,2.9,9.93,9.93,0,0,1-.19,2.77,10.71,10.71,0,0,1-.76,2.33,12.14,12.14,0,0,1-1.92,3,9.49,9.49,0,0,1-.68.72Z" transform="translate(-648.31 -731.2)"/><path class="cls-1" d="M677.7,759.31s0.24-.43.6-1.18a17.47,17.47,0,0,0,1.18-3.18,13.83,13.83,0,0,0,.36-2.16,11,11,0,0,0-.09-2.39,16.37,16.37,0,0,0-.62-2.51c-0.27-.86-0.61-1.73-1-2.61s-0.69-1.79-1-2.71a17.2,17.2,0,0,1-.71-2.81,10.43,10.43,0,0,1-.11-2.78,7.68,7.68,0,0,1,.62-2.42,6.17,6.17,0,0,1,2.32-2.82,4.47,4.47,0,0,1,.91-0.43l0.33-.11-0.28.2a6.17,6.17,0,0,0-.71.64,6.56,6.56,0,0,0-1.48,2.89,8.27,8.27,0,0,0-.22,2.12,12.23,12.23,0,0,0,.35,2.36,23.78,23.78,0,0,0,.8,2.51c0.31,0.86.68,1.73,1,2.63s0.68,1.83,1,2.78a14,14,0,0,1,.52,2.9,9.93,9.93,0,0,1-.19,2.77,10.71,10.71,0,0,1-.76,2.33,12.14,12.14,0,0,1-1.92,3,9.49,9.49,0,0,1-.68.72Z" transform="translate(-648.31 -731.2)"/><path class="cls-1" d="M696.43,759.31s0.24-.43.6-1.18a17.47,17.47,0,0,0,1.18-3.18,13.83,13.83,0,0,0,.36-2.16,11,11,0,0,0-.09-2.39,16.37,16.37,0,0,0-.62-2.51c-0.27-.86-0.61-1.73-1-2.61s-0.69-1.79-1-2.71a17.2,17.2,0,0,1-.71-2.81,10.43,10.43,0,0,1-.11-2.78,7.68,7.68,0,0,1,.62-2.42,6.17,6.17,0,0,1,2.32-2.82,4.47,4.47,0,0,1,.91-0.43l0.33-.11-0.28.2a6.17,6.17,0,0,0-.71.64,6.56,6.56,0,0,0-1.48,2.89,8.27,8.27,0,0,0-.22,2.12,12.23,12.23,0,0,0,.35,2.36,23.78,23.78,0,0,0,.8,2.51c0.31,0.86.68,1.73,1,2.63s0.68,1.83,1,2.78a14,14,0,0,1,.52,2.9A9.93,9.93,0,0,1,700,753a10.71,10.71,0,0,1-.76,2.33,12.14,12.14,0,0,1-1.92,3,9.49,9.49,0,0,1-.68.72Z" transform="translate(-648.31 -731.2)"/><path class="cls-1" d="M715.16,759.31s0.24-.43.6-1.18a17.47,17.47,0,0,0,1.18-3.18,13.83,13.83,0,0,0,.36-2.16,11,11,0,0,0-.09-2.39,16.37,16.37,0,0,0-.62-2.51c-0.27-.86-0.61-1.73-1-2.61s-0.69-1.79-1-2.71a17.2,17.2,0,0,1-.71-2.81,10.43,10.43,0,0,1-.11-2.78,7.68,7.68,0,0,1,.62-2.42,6.17,6.17,0,0,1,2.32-2.82,4.47,4.47,0,0,1,.91-0.43l0.33-.11-0.28.2a6.17,6.17,0,0,0-.71.64,6.56,6.56,0,0,0-1.48,2.89,8.27,8.27,0,0,0-.22,2.12,12.23,12.23,0,0,0,.35,2.36,23.78,23.78,0,0,0,.8,2.51c0.31,0.86.68,1.73,1,2.63s0.68,1.83,1,2.78a14,14,0,0,1,.52,2.9,9.93,9.93,0,0,1-.19,2.77,10.71,10.71,0,0,1-.76,2.33,12.14,12.14,0,0,1-1.92,3,9.49,9.49,0,0,1-.68.72Z" transform="translate(-648.31 -731.2)"/></svg>