<svg id="Layer_1" data-name="Layer 1" xmlns="http://www.w3.org/2000/svg" viewBox="0 0 86.98 116.11"><defs><style>.cls-1{fill:#06251c;}.cls-2{fill:#65b891;}.cls-3{fill:#4e888c;}.cls-4{fill:#92d4d4;}</style></defs><title>T2_Sink</title><rect class="cls-1" x="41.97" y="5.09" width="2" height="16.86"/><path class="cls-2" d="M863.49,380.65h-3.88a0.47,0.47,0,0,1-.51-0.43l1-3.46a0.47,0.47,0,0,1,.51-0.43h1.93a0.47,0.47,0,0,1,.51.43l1,3.46A0.47,0.47,0,0,1,863.49,380.65Z" transform="translate(-818.57 -371.59)"/><path class="cls-1" d="M853.47,387.68l-0.56-3.52a0.34,0.34,0,0,1,.33-0.39H858a0.34,0.34,0,0,1,.33.39l-0.56,3.52a0.34,0.34,0,0,1-.33.28h-3.63A0.34,0.34,0,0,1,853.47,387.68Z" transform="translate(-818.57 -371.59)"/><path class="cls-1" d="M865.34,387.68l-0.56-3.52a0.34,0.34,0,0,1,.33-0.39h4.75a0.34,0.34,0,0,1,.33.39l-0.56,3.52a0.34,0.34,0,0,1-.33.28h-3.63A0.34,0.34,0,0,1,865.34,387.68Z" transform="translate(-818.57 -371.59)"/><rect class="cls-2" x="2.93" y="19.46" width="81.11" height="95.64"/><path class="cls-1" d="M862.07,487.7a1,1,0,0,1-1-1V391.05a1,1,0,1,1,2,0v95.64A1,1,0,0,1,862.07,487.7Z" transform="translate(-818.57 -371.59)"/><circle class="cls-1" cx="22.75" cy="33.27" r="2.49"/><circle class="cls-1" cx="64.24" cy="33.27" r="2.49"/><rect class="cls-3" y="16.06" width="86.98" height="6.81" rx="0.76" ry="0.76"/><polygon class="cls-2" points="4.98 2.97 15.88 2.97 14.07 16.06 6.73 16.06 4.98 2.97"/><polygon class="cls-1" points="17.96 5.09 27.16 5.09 25.64 16.06 19.44 16.06 17.96 5.09"/><rect class="cls-4" x="41.03" y="9.06" width="3.87" height="7"/><path class="cls-4" d="M854.11,376.34a3.68,3.68,0,0,1,1.07.37,3.33,3.33,0,0,1,.86.66,3.24,3.24,0,0,0-1-.3,3,3,0,0,0-.67,0l-0.3,0A0.37,0.37,0,0,1,854.11,376.34Z" transform="translate(-818.57 -371.59)"/><path class="cls-4" d="M857.16,371.7s0.09,0.07.24,0.23a2.69,2.69,0,0,1,.42.6,2.53,2.53,0,0,1,.27,1,2.44,2.44,0,0,0-.57-0.74,2.17,2.17,0,0,0-.51-0.33l-0.25-.1a0.38,0.38,0,0,1,.25-0.73l0.12,0.07Z" transform="translate(-818.57 -371.59)"/><path class="cls-4" d="M861.39,373.32a2,2,0,0,1,.46-0.66,2.33,2.33,0,0,1,.73-0.47l0,0a0.39,0.39,0,1,1,.28.74,0.4,0.4,0,0,1-.21,0,1.62,1.62,0,0,0-.66,0A1.94,1.94,0,0,0,861.39,373.32Z" transform="translate(-818.57 -371.59)"/><path class="cls-4" d="M865.44,375.94a3.21,3.21,0,0,1,.95-0.58,3.51,3.51,0,0,1,1.15-.23h0a0.38,0.38,0,0,1,0,.77l-0.14,0a2.8,2.8,0,0,0-1-.15A3.12,3.12,0,0,0,865.44,375.94Z" transform="translate(-818.57 -371.59)"/><path class="cls-4" d="M866.93,379.25l0.46-.08a6.79,6.79,0,0,1,1-.09,3.26,3.26,0,0,1,1.08.17,2.45,2.45,0,0,1,.48.23l0,0a0.38,0.38,0,0,1-.42.64l-0.08-.07a1.75,1.75,0,0,0-.3-0.25,2.73,2.73,0,0,0-.85-0.37,6.55,6.55,0,0,0-1-.17Z" transform="translate(-818.57 -371.59)"/></svg>