<svg id="Layer_1" data-name="Layer 1" xmlns="http://www.w3.org/2000/svg" viewBox="0 0 162.31 60.46"><defs><style>.cls-1{fill:#06251c;}.cls-2{fill:#4e888c;}.cls-3{fill:#65b891;}</style></defs><title>Comp_Table</title><path class="cls-1" d="M409.64,469.08a41.2,41.2,0,0,1-6.26-.5l0.15-1c5.5,0.85,13.43,1,20-3.11,7-4.42,9.21-12.08,7.7-17.36a26.45,26.45,0,0,0-1.33-3.42,27.53,27.53,0,0,1-1.36-3.51,14,14,0,0,1,1.42-10.61c1.88-3.36,4.26-2.36,7.65-3.29l0.27,1c-3.14.87-5.3-.31-7,2.82a13,13,0,0,0-1.33,9.85,26.85,26.85,0,0,0,1.32,3.38,27.14,27.14,0,0,1,1.38,3.55c1.87,6.58-1.55,14.35-8.13,18.48A27,27,0,0,1,409.64,469.08Z" transform="translate(-394.13 -426)"/><rect class="cls-2" x="382.02" y="458.29" width="43.2" height="12.82" rx="1.05" ry="1.05" transform="translate(474.18 -364.93) rotate(90)"/><rect class="cls-3" x="397.29" y="449.52" width="12.99" height="6.5" rx="1.39" ry="1.39" transform="translate(462.42 -377.02) rotate(90)"/><path class="cls-1" d="M406.83,482.68V462.36a0.2,0.2,0,1,1,.41,0v20.32A0.2,0.2,0,0,1,406.83,482.68Z" transform="translate(-394.13 -426)"/><path class="cls-1" d="M405.44,482.68V462.36a0.2,0.2,0,1,1,.41,0v20.32A0.2,0.2,0,0,1,405.44,482.68Z" transform="translate(-394.13 -426)"/><path class="cls-1" d="M404,482.68V462.36a0.2,0.2,0,1,1,.41,0v20.32A0.2,0.2,0,0,1,404,482.68Z" transform="translate(-394.13 -426)"/><path class="cls-1" d="M402.64,482.68V462.36a0.2,0.2,0,1,1,.41,0v20.32A0.2,0.2,0,0,1,402.64,482.68Z" transform="translate(-394.13 -426)"/><path class="cls-1" d="M401.25,482.68V462.36a0.2,0.2,0,0,1,.41,0v20.32A0.2,0.2,0,0,1,401.25,482.68Z" transform="translate(-394.13 -426)"/><path class="cls-1" d="M399.85,482.68V462.36a0.2,0.2,0,1,1,.41,0v20.32A0.2,0.2,0,0,1,399.85,482.68Z" transform="translate(-394.13 -426)"/><polygon class="cls-1" points="82.69 60.46 79.69 60.46 79.69 3 3 3 3 60.46 0 60.46 0 0 82.69 0 82.69 60.46"/><rect class="cls-1" x="1.5" y="1.5" width="79.69" height="12.7"/><rect class="cls-2" x="3.08" y="2.27" width="34.06" height="9.15"/><rect class="cls-2" x="44.56" y="2.27" width="34.06" height="9.15"/><circle class="cls-1" cx="20.11" cy="6.85" r="1.28"/><circle class="cls-1" cx="61.41" cy="6.85" r="1.28"/><polygon class="cls-1" points="162.31 60.46 159.31 60.46 159.31 3 82.62 3 82.62 60.46 79.62 60.46 79.62 0 162.31 0 162.31 60.46"/><rect class="cls-1" x="81.12" y="1.5" width="79.69" height="12.7"/><rect class="cls-2" x="84.69" y="2.27" width="34.06" height="9.15"/><rect class="cls-2" x="125.18" y="2.27" width="34.06" height="9.15"/><circle class="cls-1" cx="101.72" cy="6.85" r="1.28"/><circle class="cls-1" cx="142.03" cy="6.85" r="1.28"/></svg>