<svg id="Layer_1" data-name="Layer 1" xmlns="http://www.w3.org/2000/svg" viewBox="0 0 93.75 93.75"><defs><style>.cls-1{fill:#4e888c;}.cls-2{fill:#65b891;}.cls-3{fill:#06251c;}</style></defs><title>Lau_Washer</title><rect class="cls-1" width="93.75" height="93.75" rx="3.53" ry="3.53"/><circle class="cls-2" cx="46.87" cy="50.21" r="30.56"/><path class="cls-3" d="M149.66,694.27A33.34,33.34,0,1,1,183,660.93,33.38,33.38,0,0,1,149.66,694.27Zm0-61.12a27.78,27.78,0,1,0,27.78,27.78A27.81,27.81,0,0,0,149.66,633.15Z" transform="translate(-102.78 -610.71)"/><path class="cls-2" d="M142.57,614.31v9.79H108.63a2.11,2.11,0,0,1-1.89-2.26v-5.28a2.11,2.11,0,0,1,1.89-2.26h33.94Z" transform="translate(-102.78 -610.71)"/><path class="cls-2" d="M192.56,616.57v5.28a2.26,2.26,0,0,1-2.26,2.26H149.66v-9.79H190.3A2.27,2.27,0,0,1,192.56,616.57Z" transform="translate(-102.78 -610.71)"/></svg>