<svg id="Layer_1" data-name="Layer 1" xmlns="http://www.w3.org/2000/svg" viewBox="0 0 87.6 32.94"><defs><style>.cls-1,.cls-2{fill:#fff;}.cls-2{font-size:8.57px;font-family:AUTHENTICSans-90, AUTHENTIC Sans;}</style></defs><title>helper</title><path class="cls-1" d="M87.18,16.48a1.62,1.62,0,0,1-.48,1.15l-11,11a1.62,1.62,0,1,1-2.29-2.29l9.82-9.82L73.46,6.66a1.62,1.62,0,0,1,2.29-2.29l11,11A1.6,1.6,0,0,1,87.18,16.48Z"/><path class="cls-1" d="M.9,15.33l11-11a1.62,1.62,0,0,1,2.29,2.29L4.32,16.48l9.82,9.82a1.62,1.62,0,1,1-2.29,2.29L.9,17.63a1.62,1.62,0,0,1-.48-1.15A1.6,1.6,0,0,1,.9,15.33Z"/><text class="cls-2" transform="translate(17.38 14.46)">swipe / scroll<tspan x="6.3" y="10.28">to explore</tspan></text></svg>