<svg xmlns="http://www.w3.org/2000/svg" viewBox="0 0 100.08 97.8"><defs><style>.cls-1,.cls-10,.cls-100,.cls-101,.cls-102,.cls-103,.cls-104,.cls-105,.cls-106,.cls-107,.cls-108,.cls-109,.cls-11,.cls-110,.cls-111,.cls-112,.cls-113,.cls-114,.cls-115,.cls-116,.cls-117,.cls-118,.cls-119,.cls-12,.cls-120,.cls-121,.cls-122,.cls-123,.cls-124,.cls-125,.cls-126,.cls-127,.cls-128,.cls-129,.cls-13,.cls-130,.cls-131,.cls-132,.cls-133,.cls-134,.cls-135,.cls-136,.cls-137,.cls-138,.cls-139,.cls-14,.cls-140,.cls-141,.cls-142,.cls-143,.cls-144,.cls-145,.cls-146,.cls-147,.cls-148,.cls-149,.cls-15,.cls-150,.cls-151,.cls-152,.cls-153,.cls-154,.cls-155,.cls-156,.cls-157,.cls-158,.cls-159,.cls-16,.cls-160,.cls-161,.cls-162,.cls-163,.cls-164,.cls-165,.cls-166,.cls-167,.cls-168,.cls-169,.cls-17,.cls-170,.cls-171,.cls-172,.cls-173,.cls-174,.cls-175,.cls-176,.cls-177,.cls-178,.cls-179,.cls-18,.cls-180,.cls-181,.cls-182,.cls-183,.cls-184,.cls-185,.cls-186,.cls-187,.cls-188,.cls-189,.cls-19,.cls-190,.cls-191,.cls-192,.cls-193,.cls-194,.cls-195,.cls-196,.cls-197,.cls-198,.cls-199,.cls-2,.cls-20,.cls-200,.cls-201,.cls-202,.cls-203,.cls-204,.cls-205,.cls-206,.cls-207,.cls-208,.cls-209,.cls-21,.cls-210,.cls-211,.cls-212,.cls-213,.cls-214,.cls-215,.cls-216,.cls-217,.cls-218,.cls-219,.cls-22,.cls-220,.cls-221,.cls-222,.cls-223,.cls-224,.cls-225,.cls-226,.cls-227,.cls-228,.cls-229,.cls-23,.cls-230,.cls-231,.cls-232,.cls-233,.cls-234,.cls-235,.cls-236,.cls-237,.cls-238,.cls-24,.cls-25,.cls-26,.cls-27,.cls-28,.cls-29,.cls-3,.cls-30,.cls-31,.cls-32,.cls-33,.cls-34,.cls-35,.cls-36,.cls-37,.cls-38,.cls-39,.cls-4,.cls-40,.cls-41,.cls-42,.cls-43,.cls-44,.cls-45,.cls-46,.cls-47,.cls-48,.cls-49,.cls-5,.cls-50,.cls-51,.cls-52,.cls-53,.cls-54,.cls-55,.cls-56,.cls-57,.cls-58,.cls-59,.cls-6,.cls-60,.cls-61,.cls-62,.cls-63,.cls-64,.cls-65,.cls-66,.cls-67,.cls-68,.cls-69,.cls-7,.cls-70,.cls-71,.cls-72,.cls-73,.cls-74,.cls-75,.cls-76,.cls-77,.cls-78,.cls-79,.cls-8,.cls-80,.cls-81,.cls-82,.cls-83,.cls-84,.cls-85,.cls-86,.cls-87,.cls-88,.cls-89,.cls-9,.cls-90,.cls-91,.cls-92,.cls-93,.cls-94,.cls-95,.cls-96,.cls-97,.cls-98,.cls-99{fill:none;stroke-linecap:round;stroke-miterlimit:10;}.cls-1{stroke:#936f73;}.cls-2{stroke:#f5d9e9;}.cls-3{stroke:#0da681;}.cls-4{stroke:#49bc8f;}.cls-5{stroke:#d277b0;}.cls-6{stroke:#51c4cb;}.cls-7{stroke:#1e70b8;}.cls-8{stroke:#ec8b23;}.cls-9{stroke:#82c145;}.cls-10{stroke:#6450a1;}.cls-11{stroke:#f8b8ce;}.cls-12{stroke:#54b948;}.cls-13{stroke:#8e4822;}.cls-14{stroke:#f2ce36;}.cls-15{stroke:#4c956f;}.cls-16{stroke:#077d7a;}.cls-17{stroke:#a664a9;}.cls-18{stroke:#45c5e3;}.cls-19{stroke:#eded8a;}.cls-20{stroke:#65bc49;}.cls-21{stroke:#dd7526;}.cls-22{stroke:#be7277;}.cls-23{stroke:#b36a91;}.cls-24{stroke:#6766ae;}.cls-25{stroke:#4bb749;}.cls-26{stroke:#967596;}.cls-27{stroke:#aec4e5;}.cls-28{stroke:#d29f2a;}.cls-29{stroke:#0c4a7b;}.cls-30{stroke:#caadd3;}.cls-31{stroke:#7ac24a;}.cls-32{stroke:#1e436d;}.cls-33{stroke:#d62690;}.cls-34{stroke:#223369;}.cls-35{stroke:#c54f9d;}.cls-36{stroke:#3a308e;}.cls-37{stroke:#12a8a4;}.cls-38{stroke:#732775;}.cls-39{stroke:#c4bd5a;}.cls-40{stroke:#6655a4;}.cls-41{stroke:#62bb46;}.cls-42{stroke:#aa5ca4;}.cls-43{stroke:#b1b6be;}.cls-44{stroke:#8f55a2;}.cls-45{stroke:#ef3a3b;}.cls-46{stroke:#7467ae;}.cls-47{stroke:#3e7136;}.cls-48{stroke:#c5da42;}.cls-49{stroke:#c14329;}.cls-50{stroke:#ef3e23;}.cls-51{stroke:#c15728;}.cls-52{stroke:#57b947;}.cls-53{stroke:#517074;}.cls-54{stroke:#6153a3;}.cls-55{stroke:#e9e2f1;}.cls-56{stroke:#84c661;}.cls-57{stroke:#b6a7d1;}.cls-58{stroke:#82c77a;}.cls-59{stroke:#57c1a7;}.cls-60{stroke:#afd6b0;}.cls-61{stroke:#084f64;}.cls-62{stroke:#8ba93d;}.cls-63{stroke:#3e5d94;}.cls-64{stroke:#278574;}.cls-65{stroke:#91b67d;}.cls-66{stroke:#8ac640;}.cls-67{stroke:#af519f;}.cls-68{stroke:#a7cf44;}.cls-69{stroke:#98cc6d;}.cls-70{stroke:#aa99ca;}.cls-71{stroke:#4ea4b5;}.cls-72{stroke:#4f5ba9;}.cls-73{stroke:#b79ac9;}.cls-74{stroke:#3653a4;}.cls-75{stroke:#9c5e30;}.cls-76{stroke:#f06ba4;}.cls-77{stroke:#008454;}.cls-78{stroke:#15c2ea;}.cls-79{stroke:#2a101f;}.cls-80{stroke:#428982;}.cls-81{stroke:#e31e34;}.cls-82{stroke:#3b53a4;}.cls-83{stroke:#934399;}.cls-84{stroke:#ed1b74;}.cls-85{stroke:#382b76;}.cls-86{stroke:#4eb857;}.cls-87{stroke:#71bf44;}.cls-88{stroke:#193e24;}.cls-89{stroke:#d2e8c6;}.cls-90{stroke:#e5a7cb;}.cls-91{stroke:#f47731;}.cls-92{stroke:#a6ce39;}.cls-93{stroke:#8b91c7;}.cls-94{stroke:#6bbe46;}.cls-95{stroke:#989faa;}.cls-96{stroke:#c4d938;}.cls-97{stroke:#01b3b6;}.cls-98{stroke:#199246;}.cls-99{stroke:#757a79;}.cls-100{stroke:#d5c49c;}.cls-101{stroke:#e8ba6d;}.cls-102{stroke:#8fc850;}.cls-103{stroke:#86612d;}.cls-104{stroke:#9caf53;}.cls-105{stroke:#3a60a8;}.cls-106{stroke:#abd486;}.cls-107{stroke:#c2da58;}.cls-108{stroke:#f8b438;}.cls-109{stroke:#8cc63f;}.cls-110{stroke:#a88580;}.cls-111{stroke:#2893c0;}.cls-112{stroke:#826f2b;}.cls-113{stroke:#d33f27;}.cls-114{stroke:#e9d7e9;}.cls-115{stroke:#9ea037;}.cls-116{stroke:#315e66;}.cls-117{stroke:#c45e7b;}.cls-118{stroke:#ef416c;}.cls-119{stroke:#ef3b3f;}.cls-120{stroke:#7ac473;}.cls-121{stroke:#196559;}.cls-122{stroke:#e0bc3d;}.cls-123{stroke:#128541;}.cls-124{stroke:#96247b;}.cls-125{stroke:#7c5fa8;}.cls-126{stroke:#824e9f;}.cls-127{stroke:#608dc9;}.cls-128{stroke:#51c6df;}.cls-129{stroke:#9e73ab;}.cls-130{stroke:#2fa6d6;}.cls-131{stroke:#1d6daf;}.cls-132{stroke:#68bf6c;}.cls-133{stroke:#891d5c;}.cls-134{stroke:#cab0bd;}.cls-135{stroke:#4a8b7d;}.cls-136{stroke:#805fa9;}.cls-137{stroke:#793895;}.cls-138{stroke:#4bbb81;}.cls-139{stroke:#6ebf52;}.cls-140{stroke:#6bbe49;}.cls-141{stroke:#517e5f;}.cls-142{stroke:#2bb1d1;}.cls-143{stroke:#71439a;}.cls-144{stroke:#bc3426;}.cls-145{stroke:#fcdba4;}.cls-146{stroke:#3c59a8;}.cls-147{stroke:#91c681;}.cls-148{stroke:#b4daa5;}.cls-149{stroke:#5e57a6;}.cls-150{stroke:#6c2a7d;}.cls-151{stroke:#4e6a92;}.cls-152{stroke:#93469b;}.cls-153{stroke:#0a806d;}.cls-154{stroke:#deaf61;}.cls-155{stroke:#431956;}.cls-156{stroke:#7d5ba6;}.cls-157{stroke:#e64673;}.cls-158{stroke:#3c2a78;}.cls-159{stroke:#835340;}.cls-160{stroke:#2fa649;}.cls-161{stroke:#3c2f55;}.cls-162{stroke:#bd8e76;}.cls-163{stroke:#4ab85d;}.cls-164{stroke:#daeee1;}.cls-165{stroke:#2066a1;}.cls-166{stroke:#dd8461;}.cls-167{stroke:#6e5674;}.cls-168{stroke:#45bc96;}.cls-169{stroke:#c7badb;}.cls-170{stroke:#88c64e;}.cls-171{stroke:#e279b0;}.cls-172{stroke:#523614;}.cls-173{stroke:#6ea3d7;}.cls-174{stroke:#723b18;}.cls-175{stroke:#2c4f85;}.cls-176{stroke:#94ad3c;}.cls-177{stroke:#867f31;}.cls-178{stroke:#523369;}.cls-179{stroke:#b61f70;}.cls-180{stroke:#b4abd4;}.cls-181{stroke:#2f7e5e;}.cls-182{stroke:#2b99a7;}.cls-183{stroke:#9dbe3b;}.cls-184{stroke:#258b48;}.cls-185{stroke:#d04627;}.cls-186{stroke:#622263;}.cls-187{stroke:#61c3a8;}.cls-188{stroke:#c2519e;}.cls-189{stroke:#353654;}.cls-190{stroke:#a9c58b;}.cls-191{stroke:#5d55a4;}.cls-192{stroke:#a01d21;}.cls-193{stroke:#798e81;}.cls-194{stroke:#2ab34c;}.cls-195{stroke:#8a55a3;}.cls-196{stroke:#1e2d2f;}.cls-197{stroke:#f05223;}.cls-198{stroke:#2c3881;}.cls-199{stroke:#706b8f;}.cls-200{stroke:#6ebe44;}.cls-201{stroke:#e4e13b;}.cls-202{stroke:#d13e58;}.cls-203{stroke:#a04d9d;}.cls-204{stroke:#b93594;}.cls-205{stroke:#77c093;}.cls-206{stroke:#3a3091;}.cls-207{stroke:#d64699;}.cls-208{stroke:#e385b7;}.cls-209{stroke:#83cba9;}.cls-210{stroke:#3da548;}.cls-211{stroke:#f1eb57;}.cls-212{stroke:#cbb22d;}.cls-213{stroke:#b28049;}.cls-214{stroke:#aa7c4f;}.cls-215{stroke:#2d3086;}.cls-216{stroke:#401e5c;}.cls-217{stroke:#1d4437;}.cls-218{stroke:#79c143;}.cls-219{stroke:#5f7bbc;}.cls-220{stroke:#6cbf62;}.cls-221{stroke:#d1da81;}.cls-222{stroke:#51698e;}.cls-223{stroke:#34488f;}.cls-224{stroke:#4aba77;}.cls-225{stroke:#81cdeb;}.cls-226{stroke:#9c5fa7;}.cls-227{stroke:#ec174e;}.cls-228{stroke:#77c043;}.cls-229{stroke:#eab61f;}.cls-230{stroke:#298943;}.cls-231{stroke:#4a111c;}.cls-232{stroke:#e9b2d2;}.cls-233{stroke:#729ad0;}.cls-234{stroke:#d396c3;}.cls-235{stroke:#b92562;}.cls-236{stroke:#942b70;}.cls-237{stroke:#486eb5;}.cls-238{stroke:#9e1b33;}</style></defs><title>Asset 1</title><g id="Layer_2" data-name="Layer 2"><g id="Layer_1-2" data-name="Layer 1"><line class="cls-1" x1="76.23" y1="26.35" x2="23.85" y2="26.35"/><line class="cls-2" x1="73.61" y1="23.73" x2="26.46" y2="23.73"/><line class="cls-3" x1="71.02" y1="21.15" x2="29.06" y2="21.15"/><line class="cls-4" x1="68.48" y1="18.62" x2="31.6" y2="18.62"/><line class="cls-5" x1="66.01" y1="16.17" x2="34.07" y2="16.17"/><line class="cls-6" x1="63.64" y1="13.82" x2="36.44" y2="13.82"/><line class="cls-7" x1="61.39" y1="11.61" x2="38.69" y2="11.61"/><line class="cls-8" x1="59.3" y1="9.54" x2="40.79" y2="9.54"/><line class="cls-9" x1="57.36" y1="7.64" x2="42.72" y2="7.64"/><line class="cls-10" x1="55.61" y1="5.94" x2="44.47" y2="5.94"/><line class="cls-11" x1="54.06" y1="4.44" x2="46.02" y2="4.44"/><line class="cls-12" x1="52.73" y1="3.16" x2="47.35" y2="3.16"/><line class="cls-13" x1="51.63" y1="2.12" x2="48.45" y2="2.12"/><line class="cls-14" x1="50.77" y1="1.33" x2="49.31" y2="1.33"/><line class="cls-15" x1="50.16" y1="0.79" x2="49.91" y2="0.79"/><line class="cls-16" x1="49.81" y1="0.52" x2="50.27" y2="0.52"/><line class="cls-17" x1="49.72" y1="0.5" x2="50.36" y2="0.5"/><line class="cls-18" x1="49.88" y1="0.75" x2="50.2" y2="0.75"/><line class="cls-19" x1="50.3" y1="1.26" x2="49.78" y2="1.26"/><line class="cls-20" x1="50.97" y1="2.03" x2="49.1" y2="2.03"/><line class="cls-21" x1="51.89" y1="3.05" x2="48.19" y2="3.05"/><line class="cls-22" x1="53.05" y1="4.31" x2="47.03" y2="4.31"/><line class="cls-23" x1="54.42" y1="5.8" x2="45.66" y2="5.8"/><line class="cls-24" x1="56.01" y1="7.5" x2="44.07" y2="7.5"/><line class="cls-25" x1="57.79" y1="9.41" x2="42.29" y2="9.41"/><line class="cls-26" x1="59.74" y1="11.49" x2="40.34" y2="11.49"/><line class="cls-27" x1="61.85" y1="13.73" x2="38.23" y2="13.73"/><line class="cls-28" x1="64.09" y1="16.1" x2="35.99" y2="16.1"/><line class="cls-29" x1="66.44" y1="18.59" x2="33.64" y2="18.59"/><line class="cls-30" x1="68.87" y1="21.17" x2="31.21" y2="21.17"/><line class="cls-31" x1="71.36" y1="23.82" x2="28.71" y2="23.82"/><line class="cls-32" x1="73.89" y1="26.51" x2="26.19" y2="26.51"/><line class="cls-33" x1="76.43" y1="29.2" x2="23.65" y2="29.2"/><line class="cls-34" x1="78.95" y1="31.89" x2="21.13" y2="31.89"/><line class="cls-35" x1="81.42" y1="34.54" x2="18.66" y2="34.54"/><line class="cls-36" x1="83.83" y1="37.12" x2="16.25" y2="37.12"/><line class="cls-37" x1="86.14" y1="39.62" x2="13.94" y2="39.62"/><line class="cls-38" x1="88.33" y1="42" x2="11.74" y2="42"/><line class="cls-39" x1="90.39" y1="44.24" x2="9.69" y2="44.24"/><line class="cls-40" x1="92.28" y1="46.33" x2="7.8" y2="46.33"/><line class="cls-41" x1="93.98" y1="48.24" x2="6.1" y2="48.24"/><line class="cls-42" x1="95.49" y1="49.95" x2="4.59" y2="49.95"/><line class="cls-43" x1="96.78" y1="51.45" x2="3.3" y2="51.45"/><line class="cls-44" x1="97.84" y1="52.73" x2="2.24" y2="52.73"/><line class="cls-45" x1="98.66" y1="53.76" x2="1.42" y2="53.76"/><line class="cls-46" x1="99.23" y1="54.56" x2="0.85" y2="54.56"/><line class="cls-47" x1="99.53" y1="55.09" x2="0.55" y2="55.09"/><line class="cls-48" x1="99.58" y1="55.37" x2="0.5" y2="55.37"/><line class="cls-49" x1="99.36" y1="55.4" x2="0.72" y2="55.4"/><line class="cls-50" x1="98.88" y1="55.16" x2="1.2" y2="55.16"/><line class="cls-51" x1="98.14" y1="54.67" x2="1.94" y2="54.67"/><line class="cls-52" x1="97.15" y1="53.93" x2="2.94" y2="53.93"/><line class="cls-53" x1="95.91" y1="52.95" x2="4.17" y2="52.95"/><line class="cls-54" x1="94.43" y1="51.74" x2="5.65" y2="51.74"/><line class="cls-55" x1="92.74" y1="50.31" x2="7.34" y2="50.31"/><line class="cls-56" x1="90.84" y1="48.69" x2="9.23" y2="48.69"/><line class="cls-57" x1="88.76" y1="46.88" x2="11.32" y2="46.88"/><line class="cls-58" x1="86.51" y1="44.91" x2="13.57" y2="44.91"/><line class="cls-59" x1="84.11" y1="42.8" x2="15.96" y2="42.8"/><line class="cls-60" x1="81.59" y1="40.57" x2="18.48" y2="40.57"/><line class="cls-61" x1="78.98" y1="38.24" x2="21.11" y2="38.24"/><line class="cls-62" x1="76.28" y1="35.84" x2="23.8" y2="35.84"/><line class="cls-63" x1="73.53" y1="33.4" x2="26.55" y2="33.4"/><line class="cls-64" x1="70.76" y1="30.93" x2="29.32" y2="30.93"/><line class="cls-65" x1="67.99" y1="28.48" x2="32.08" y2="28.48"/><line class="cls-66" x1="65.26" y1="26.05" x2="34.82" y2="26.05"/><line class="cls-67" x1="62.57" y1="23.69" x2="37.51" y2="23.69"/><line class="cls-68" x1="59.97" y1="21.4" x2="40.12" y2="21.4"/><line class="cls-69" x1="57.46" y1="19.23" x2="42.61" y2="19.23"/><line class="cls-70" x1="55.09" y1="17.19" x2="44.99" y2="17.19"/><line class="cls-71" x1="52.86" y1="15.3" x2="47.22" y2="15.3"/><line class="cls-72" x1="50.81" y1="13.58" x2="49.27" y2="13.58"/><line class="cls-73" x1="48.94" y1="12.06" x2="51.14" y2="12.06"/><line class="cls-74" x1="47.28" y1="10.75" x2="52.8" y2="10.75"/><line class="cls-75" x1="45.84" y1="9.66" x2="54.23" y2="9.66"/><line class="cls-76" x1="44.64" y1="8.81" x2="55.44" y2="8.81"/><line class="cls-77" x1="43.67" y1="8.2" x2="56.41" y2="8.2"/><line class="cls-78" x1="42.96" y1="7.85" x2="57.12" y2="7.85"/><line class="cls-79" x1="42.51" y1="7.77" x2="57.57" y2="7.77"/><line class="cls-80" x1="42.31" y1="7.94" x2="57.77" y2="7.94"/><line class="cls-81" x1="42.37" y1="8.38" x2="57.71" y2="8.38"/><line class="cls-82" x1="42.7" y1="9.08" x2="57.38" y2="9.08"/><line class="cls-83" x1="43.27" y1="10.03" x2="56.81" y2="10.03"/><line class="cls-84" x1="44.09" y1="11.23" x2="55.99" y2="11.23"/><line class="cls-85" x1="45.14" y1="12.67" x2="54.94" y2="12.67"/><line class="cls-86" x1="46.41" y1="14.34" x2="53.67" y2="14.34"/><line class="cls-87" x1="47.89" y1="16.21" x2="52.19" y2="16.21"/><line class="cls-88" x1="49.56" y1="18.29" x2="50.52" y2="18.29"/><line class="cls-89" x1="51.41" y1="20.53" x2="48.67" y2="20.53"/><line class="cls-90" x1="53.4" y1="22.93" x2="46.68" y2="22.93"/><line class="cls-91" x1="55.53" y1="25.46" x2="44.55" y2="25.46"/><line class="cls-92" x1="57.76" y1="28.11" x2="42.32" y2="28.11"/><line class="cls-93" x1="60.07" y1="30.83" x2="40.01" y2="30.83"/><line class="cls-94" x1="62.44" y1="33.62" x2="37.64" y2="33.62"/><line class="cls-95" x1="64.84" y1="36.44" x2="35.24" y2="36.44"/><line class="cls-96" x1="67.24" y1="39.27" x2="32.84" y2="39.27"/><line class="cls-97" x1="69.63" y1="42.08" x2="30.45" y2="42.08"/><line class="cls-98" x1="71.96" y1="44.85" x2="28.12" y2="44.85"/><line class="cls-99" x1="74.23" y1="47.55" x2="25.85" y2="47.55"/><line class="cls-100" x1="76.39" y1="50.15" x2="23.69" y2="50.15"/><line class="cls-101" x1="78.44" y1="52.64" x2="21.64" y2="52.64"/><line class="cls-102" x1="80.34" y1="54.98" x2="19.74" y2="54.98"/><line class="cls-103" x1="82.08" y1="57.16" x2="18" y2="57.16"/><line class="cls-104" x1="83.63" y1="59.16" x2="16.45" y2="59.16"/><line class="cls-105" x1="84.98" y1="60.96" x2="15.1" y2="60.96"/><line class="cls-106" x1="86.11" y1="62.54" x2="13.97" y2="62.54"/><line class="cls-107" x1="87.01" y1="63.9" x2="13.07" y2="63.9"/><line class="cls-108" x1="87.67" y1="65.02" x2="12.41" y2="65.02"/><line class="cls-109" x1="88.07" y1="65.88" x2="12" y2="65.88"/><line class="cls-110" x1="88.22" y1="66.49" x2="11.86" y2="66.49"/><line class="cls-111" x1="88.11" y1="66.85" x2="11.97" y2="66.85"/><line class="cls-112" x1="87.73" y1="66.94" x2="12.34" y2="66.94"/><line class="cls-113" x1="87.09" y1="66.77" x2="12.98" y2="66.77"/><line class="cls-114" x1="86.2" y1="66.35" x2="13.88" y2="66.35"/><line class="cls-115" x1="85.06" y1="65.68" x2="15.03" y2="65.68"/><line class="cls-116" x1="83.67" y1="64.77" x2="16.41" y2="64.77"/><line class="cls-117" x1="82.05" y1="63.63" x2="18.03" y2="63.63"/><line class="cls-118" x1="80.22" y1="62.27" x2="19.86" y2="62.27"/><line class="cls-119" x1="78.18" y1="60.72" x2="21.9" y2="60.72"/><line class="cls-120" x1="75.96" y1="58.99" x2="24.12" y2="58.99"/><line class="cls-121" x1="73.58" y1="57.1" x2="26.5" y2="57.1"/><line class="cls-122" x1="71.06" y1="55.07" x2="29.02" y2="55.07"/><line class="cls-123" x1="68.42" y1="52.92" x2="31.66" y2="52.92"/><line class="cls-124" x1="65.69" y1="50.68" x2="34.39" y2="50.68"/><line class="cls-125" x1="62.88" y1="48.37" x2="37.2" y2="48.37"/><line class="cls-126" x1="60.03" y1="46.02" x2="40.04" y2="46.02"/><line class="cls-127" x1="57.17" y1="43.65" x2="42.91" y2="43.65"/><line class="cls-128" x1="54.31" y1="41.29" x2="45.77" y2="41.29"/><line class="cls-129" x1="51.49" y1="38.96" x2="48.59" y2="38.96"/><line class="cls-130" x1="48.72" y1="36.7" x2="51.36" y2="36.7"/><line class="cls-131" x1="46.04" y1="34.53" x2="54.04" y2="34.53"/><line class="cls-132" x1="43.47" y1="32.46" x2="56.61" y2="32.46"/><line class="cls-133" x1="41.03" y1="30.53" x2="59.05" y2="30.53"/><line class="cls-134" x1="38.75" y1="28.75" x2="61.33" y2="28.75"/><line class="cls-135" x1="36.64" y1="27.15" x2="63.44" y2="27.15"/><line class="cls-136" x1="34.72" y1="25.75" x2="65.35" y2="25.75"/><line class="cls-137" x1="33.02" y1="24.56" x2="67.06" y2="24.56"/><line class="cls-138" x1="31.54" y1="23.59" x2="68.54" y2="23.59"/><line class="cls-139" x1="30.29" y1="22.85" x2="69.79" y2="22.85"/><line class="cls-140" x1="29.29" y1="22.37" x2="70.79" y2="22.37"/><line class="cls-141" x1="28.55" y1="22.14" x2="71.53" y2="22.14"/><line class="cls-142" x1="28.06" y1="22.17" x2="72.02" y2="22.17"/><line class="cls-143" x1="27.84" y1="22.46" x2="72.24" y2="22.46"/><line class="cls-144" x1="27.87" y1="23.02" x2="72.21" y2="23.02"/><line class="cls-145" x1="28.16" y1="23.83" x2="71.92" y2="23.83"/><line class="cls-146" x1="28.71" y1="24.89" x2="71.37" y2="24.89"/><line class="cls-147" x1="29.5" y1="26.21" x2="70.58" y2="26.21"/><line class="cls-148" x1="30.52" y1="27.75" x2="69.56" y2="27.75"/><line class="cls-149" x1="31.77" y1="29.52" x2="68.31" y2="29.52"/><line class="cls-150" x1="33.22" y1="31.49" x2="66.86" y2="31.49"/><line class="cls-151" x1="34.86" y1="33.65" x2="65.22" y2="33.65"/><line class="cls-152" x1="36.67" y1="35.99" x2="63.41" y2="35.99"/><line class="cls-153" x1="38.63" y1="38.47" x2="61.45" y2="38.47"/><line class="cls-154" x1="40.72" y1="41.08" x2="59.36" y2="41.08"/><line class="cls-155" x1="42.91" y1="43.79" x2="57.17" y2="43.79"/><line class="cls-156" x1="45.18" y1="46.58" x2="54.9" y2="46.58"/><line class="cls-157" x1="47.5" y1="49.43" x2="52.58" y2="49.43"/><line class="cls-158" x1="49.85" y1="52.31" x2="50.23" y2="52.31"/><line class="cls-159" x1="52.21" y1="55.19" x2="47.87" y2="55.19"/><line class="cls-160" x1="54.54" y1="58.04" x2="45.54" y2="58.04"/><line class="cls-161" x1="56.81" y1="60.84" x2="43.26" y2="60.84"/><line class="cls-162" x1="59.02" y1="63.57" x2="41.06" y2="63.57"/><line class="cls-163" x1="61.13" y1="66.2" x2="38.95" y2="66.2"/><line class="cls-164" x1="63.1" y1="68.7" x2="36.97" y2="68.7"/><line class="cls-165" x1="64.94" y1="71.06" x2="35.14" y2="71.06"/><line class="cls-166" x1="66.61" y1="73.25" x2="33.47" y2="73.25"/><line class="cls-167" x1="68.09" y1="75.25" x2="31.99" y2="75.25"/><line class="cls-168" x1="69.37" y1="77.06" x2="30.71" y2="77.06"/><line class="cls-169" x1="70.43" y1="78.64" x2="29.65" y2="78.64"/><line class="cls-170" x1="71.26" y1="79.99" x2="28.82" y2="79.99"/><line class="cls-171" x1="71.84" y1="81.09" x2="28.24" y2="81.09"/><line class="cls-172" x1="72.18" y1="81.94" x2="27.9" y2="81.94"/><line class="cls-173" x1="72.26" y1="82.54" x2="27.82" y2="82.54"/><line class="cls-174" x1="72.07" y1="82.87" x2="28.01" y2="82.87"/><line class="cls-175" x1="71.63" y1="82.95" x2="28.45" y2="82.95"/><line class="cls-176" x1="70.92" y1="82.76" x2="29.16" y2="82.76"/><line class="cls-177" x1="69.96" y1="82.31" x2="30.12" y2="82.31"/><line class="cls-178" x1="68.76" y1="81.62" x2="31.32" y2="81.62"/><line class="cls-179" x1="67.31" y1="80.69" x2="32.77" y2="80.69"/><line class="cls-180" x1="65.64" y1="79.53" x2="34.44" y2="79.53"/><line class="cls-181" x1="63.76" y1="78.16" x2="36.32" y2="78.16"/><line class="cls-182" x1="61.68" y1="76.59" x2="38.4" y2="76.59"/><line class="cls-183" x1="59.42" y1="74.84" x2="40.66" y2="74.84"/><line class="cls-184" x1="57.01" y1="72.93" x2="43.07" y2="72.93"/><line class="cls-185" x1="54.46" y1="70.88" x2="45.63" y2="70.88"/><line class="cls-186" x1="51.79" y1="68.72" x2="48.29" y2="68.72"/><line class="cls-187" x1="49.04" y1="66.47" x2="51.04" y2="66.47"/><line class="cls-188" x1="46.22" y1="64.16" x2="53.86" y2="64.16"/><line class="cls-189" x1="43.37" y1="61.8" x2="56.71" y2="61.8"/><line class="cls-190" x1="40.5" y1="59.44" x2="59.58" y2="59.44"/><line class="cls-191" x1="37.65" y1="57.08" x2="62.43" y2="57.08"/><line class="cls-192" x1="34.83" y1="54.76" x2="65.25" y2="54.76"/><line class="cls-193" x1="32.09" y1="52.51" x2="67.99" y2="52.51"/><line class="cls-194" x1="29.43" y1="50.34" x2="70.65" y2="50.34"/><line class="cls-195" x1="26.89" y1="48.29" x2="73.19" y2="48.29"/><line class="cls-196" x1="24.48" y1="46.37" x2="75.59" y2="46.37"/><line class="cls-197" x1="22.24" y1="44.61" x2="77.84" y2="44.61"/><line class="cls-198" x1="20.18" y1="43.03" x2="79.9" y2="43.03"/><line class="cls-199" x1="18.31" y1="41.65" x2="81.77" y2="41.65"/><line class="cls-200" x1="16.65" y1="40.47" x2="83.42" y2="40.47"/><line class="cls-201" x1="15.23" y1="39.53" x2="84.85" y2="39.53"/><line class="cls-202" x1="14.04" y1="38.82" x2="86.03" y2="38.82"/><line class="cls-203" x1="13.11" y1="38.35" x2="86.97" y2="38.35"/><line class="cls-204" x1="12.43" y1="38.14" x2="87.65" y2="38.14"/><line class="cls-205" x1="12.01" y1="38.2" x2="88.07" y2="38.2"/><line class="cls-206" x1="11.86" y1="38.5" x2="88.22" y2="38.5"/><line class="cls-207" x1="11.96" y1="39.07" x2="88.12" y2="39.07"/><line class="cls-208" x1="12.33" y1="39.9" x2="87.75" y2="39.9"/><line class="cls-209" x1="12.95" y1="40.98" x2="87.13" y2="40.98"/><line class="cls-210" x1="13.81" y1="42.3" x2="86.27" y2="42.3"/><line class="cls-211" x1="14.91" y1="43.85" x2="85.17" y2="43.85"/><line class="cls-212" x1="16.22" y1="45.61" x2="83.86" y2="45.61"/><line class="cls-213" x1="17.74" y1="47.58" x2="82.34" y2="47.58"/><line class="cls-214" x1="19.45" y1="49.74" x2="80.63" y2="49.74"/><line class="cls-215" x1="21.33" y1="52.06" x2="78.75" y2="52.06"/><line class="cls-216" x1="23.35" y1="54.52" x2="76.73" y2="54.52"/><line class="cls-217" x1="25.5" y1="57.11" x2="74.58" y2="57.11"/><line class="cls-218" x1="27.75" y1="59.79" x2="72.33" y2="59.79"/><line class="cls-219" x1="30.08" y1="62.55" x2="70" y2="62.55"/><line class="cls-220" x1="32.46" y1="65.35" x2="67.62" y2="65.35"/><line class="cls-221" x1="34.86" y1="68.18" x2="65.22" y2="68.18"/><line class="cls-222" x1="37.26" y1="71.01" x2="62.82" y2="71.01"/><line class="cls-223" x1="39.64" y1="73.8" x2="60.44" y2="73.8"/><line class="cls-224" x1="41.96" y1="76.54" x2="58.12" y2="76.54"/><line class="cls-225" x1="44.2" y1="79.2" x2="55.88" y2="79.2"/><line class="cls-226" x1="46.35" y1="81.75" x2="53.73" y2="81.75"/><line class="cls-227" x1="48.36" y1="84.17" x2="51.72" y2="84.17"/><line class="cls-228" x1="50.23" y1="86.44" x2="49.85" y2="86.44"/><line class="cls-229" x1="51.93" y1="88.54" x2="48.15" y2="88.54"/><line class="cls-230" x1="53.45" y1="90.45" x2="46.63" y2="90.45"/><line class="cls-231" x1="54.75" y1="92.15" x2="45.33" y2="92.15"/><line class="cls-232" x1="55.84" y1="93.63" x2="44.24" y2="93.63"/><line class="cls-233" x1="56.7" y1="94.87" x2="43.38" y2="94.87"/><line class="cls-234" x1="57.31" y1="95.86" x2="42.77" y2="95.86"/><line class="cls-235" x1="57.67" y1="96.6" x2="42.41" y2="96.6"/><line class="cls-236" x1="57.77" y1="97.08" x2="42.3" y2="97.08"/><line class="cls-237" x1="57.62" y1="97.3" x2="42.46" y2="97.3"/><line class="cls-238" x1="57.21" y1="97.25" x2="42.87" y2="97.25"/></g></g></svg>