<svg id="Layer_1" data-name="Layer 1" xmlns="http://www.w3.org/2000/svg" viewBox="0 0 85.97 114.27"><defs><style>.cls-1{fill:#92d4d4;}.cls-2{fill:#4e888c;}.cls-3{fill:#06251c;}.cls-4{fill:#65b891;}</style></defs><title>Kit_Sink</title><rect class="cls-1" x="36.56" y="8.57" width="2.72" height="13.79"/><path class="cls-2" d="M444.7,812.56a3.68,3.68,0,0,1,1.07.37,3.33,3.33,0,0,1,.86.66,3.23,3.23,0,0,0-1-.3,3,3,0,0,0-.67,0l-0.3,0A0.37,0.37,0,1,1,444.7,812.56Z" transform="translate(-414.17 -808.37)"/><path class="cls-2" d="M447,819.31s0.08-.09.25-0.23a2.69,2.69,0,0,1,.62-0.39,2.53,2.53,0,0,1,1-.23,2.44,2.44,0,0,0-.77.53,2.17,2.17,0,0,0-.35.49c-0.06.13-.11,0.25-0.11,0.25a0.38,0.38,0,1,1-.64-0.4Z" transform="translate(-414.17 -808.37)"/><path class="cls-2" d="M452,809.54a2,2,0,0,1,.46-0.66,2.33,2.33,0,0,1,.73-0.47l0,0a0.39,0.39,0,0,1,.28.74,0.4,0.4,0,0,1-.21,0,1.62,1.62,0,0,0-.66,0A1.94,1.94,0,0,0,452,809.54Z" transform="translate(-414.17 -808.37)"/><path class="cls-2" d="M456,812.17a3.21,3.21,0,0,1,.95-0.58,3.51,3.51,0,0,1,1.15-.23h0a0.38,0.38,0,0,1,0,.77l-0.14,0a2.8,2.8,0,0,0-1-.15A3.12,3.12,0,0,0,456,812.17Z" transform="translate(-414.17 -808.37)"/><path class="cls-2" d="M457.52,815.47l0.46-.08a6.79,6.79,0,0,1,1-.09,3.26,3.26,0,0,1,1.08.17,2.45,2.45,0,0,1,.48.23l0,0a0.38,0.38,0,0,1-.42.64l-0.08-.07a1.75,1.75,0,0,0-.3-0.25,2.73,2.73,0,0,0-.85-0.37,6.56,6.56,0,0,0-1-.17Z" transform="translate(-414.17 -808.37)"/><path class="cls-3" d="M441.92,831.1h-1.27V813.82c0-2.88,2.71-5.21,6.05-5.21s6.05,2.34,6.05,5.21v1.81h-1.27v-1.81c0-2.17-2.14-3.94-4.78-3.94s-4.78,1.77-4.78,3.94V831.1Z" transform="translate(-414.17 -808.37)"/><path class="cls-2" d="M453.35,817.25h-2.46a0.3,0.3,0,0,1-.32-0.27l0.62-2.2a0.3,0.3,0,0,1,.32-0.27h1.22a0.3,0.3,0,0,1,.32.27l0.62,2.2A0.3,0.3,0,0,1,453.35,817.25Z" transform="translate(-414.17 -808.37)"/><path class="cls-3" d="M434.73,828l-0.47-2.93a0.28,0.28,0,0,1,.28-0.32h4a0.28,0.28,0,0,1,.28.32L438.3,828a0.28,0.28,0,0,1-.28.24h-3A0.28,0.28,0,0,1,434.73,828Z" transform="translate(-414.17 -808.37)"/><path class="cls-3" d="M444.6,828l-0.47-2.93a0.28,0.28,0,0,1,.28-0.32h4a0.28,0.28,0,0,1,.28.32L448.17,828a0.28,0.28,0,0,1-.28.24h-3A0.28,0.28,0,0,1,444.6,828Z" transform="translate(-414.17 -808.37)"/><rect class="cls-4" x="16.5" y="19.55" width="52.97" height="14.17" rx="6.42" ry="6.42"/><rect class="cls-2" x="2.04" y="98.8" width="81.89" height="15.46"/><rect class="cls-2" x="2.04" y="83.34" width="81.89" height="15.46"/><rect class="cls-2" x="2.04" y="67.88" width="81.89" height="15.46"/><rect class="cls-2" x="2.04" y="52.42" width="81.89" height="15.46"/><rect class="cls-2" x="2.04" y="36.95" width="81.89" height="15.46"/><path class="cls-2" d="M9.24,21.49H76.73a7.2,7.2,0,0,1,7.2,7.2V37a0,0,0,0,1,0,0H2a0,0,0,0,1,0,0V28.69A7.2,7.2,0,0,1,9.24,21.49Z"/><path class="cls-4" d="M499.34,908H415a0.79,0.79,0,0,1,0-1.59h84.38A0.79,0.79,0,0,1,499.34,908Z" transform="translate(-414.17 -808.37)"/><path class="cls-4" d="M499.34,892.51H415a0.79,0.79,0,0,1,0-1.59h84.38A0.79,0.79,0,1,1,499.34,892.51Z" transform="translate(-414.17 -808.37)"/><path class="cls-4" d="M499.34,877H415a0.79,0.79,0,1,1,0-1.59h84.38A0.79,0.79,0,1,1,499.34,877Z" transform="translate(-414.17 -808.37)"/><path class="cls-4" d="M499.34,861.58H415a0.79,0.79,0,0,1,0-1.59h84.38A0.79,0.79,0,0,1,499.34,861.58Z" transform="translate(-414.17 -808.37)"/><path class="cls-4" d="M499.34,846.12H415a0.79,0.79,0,0,1,0-1.59h84.38A0.79,0.79,0,0,1,499.34,846.12Z" transform="translate(-414.17 -808.37)"/><path class="cls-3" d="M462.82,833.83H451.48a0.79,0.79,0,0,1,0-1.59h11.34A0.79,0.79,0,0,1,462.82,833.83Z" transform="translate(-414.17 -808.37)"/><path class="cls-3" d="M462.82,849.29H451.48a0.79,0.79,0,0,1,0-1.59h11.34A0.79,0.79,0,0,1,462.82,849.29Z" transform="translate(-414.17 -808.37)"/><path class="cls-3" d="M462.82,864.76H451.48a0.79,0.79,0,1,1,0-1.59h11.34A0.79,0.79,0,0,1,462.82,864.76Z" transform="translate(-414.17 -808.37)"/><path class="cls-3" d="M462.82,880.22H451.48a0.79,0.79,0,0,1,0-1.59h11.34A0.79,0.79,0,1,1,462.82,880.22Z" transform="translate(-414.17 -808.37)"/><path class="cls-3" d="M462.82,895.68H451.48a0.79,0.79,0,0,1,0-1.59h11.34A0.79,0.79,0,0,1,462.82,895.68Z" transform="translate(-414.17 -808.37)"/><path class="cls-3" d="M462.82,911.14H451.48a0.79,0.79,0,1,1,0-1.59h11.34A0.79,0.79,0,0,1,462.82,911.14Z" transform="translate(-414.17 -808.37)"/></svg>