<svg id="Layer_1" data-name="Layer 1" xmlns="http://www.w3.org/2000/svg" viewBox="0 0 113.66 153.51"><defs><style>.cls-1{fill:#92d4d4;}.cls-2{fill:#06251c;}.cls-3{fill:#4e888c;}.cls-4{fill:#65b891;}</style></defs><title>T2_Shower</title><path class="cls-1" d="M989.4,400.12c5.53,14.47,8,30,8.61,45.46H938.77c0.12-1,.19-2.09.31-3.14,3.65-1.6,6.08-5.11,7.83-8.7a68.76,68.76,0,0,0,4.22-11.66,151.8,151.8,0,0,0,4.74-57.1c-0.62-5.73,6.19-3.91,8.59-1.64a107.39,107.39,0,0,1,10.24,10.82A96.24,96.24,0,0,1,989.4,400.12Z" transform="translate(-933.72 -332.78)"/><path class="cls-2" d="M1043.75,336h-3.2a6.44,6.44,0,0,0-.05.8c0,0.07,0,.13,0,0.2a6.22,6.22,0,0,0,.11,1h3.08a6.19,6.19,0,0,0,.11-1c0-.07,0-0.13,0-0.2A6.44,6.44,0,0,0,1043.75,336Z" transform="translate(-933.72 -332.78)"/><path class="cls-2" d="M1036.17,336h-10.78a6.44,6.44,0,0,0-.05.8c0,0.07,0,.13,0,0.2a6.22,6.22,0,0,0,.11,1h10.66a6.19,6.19,0,0,0,.11-1c0-.07,0-0.13,0-0.2A6.44,6.44,0,0,0,1036.17,336Z" transform="translate(-933.72 -332.78)"/><path class="cls-2" d="M1021,336H933.72v2h87.22a6.2,6.2,0,0,0,.11-1c0-.07,0-0.13,0-0.2A6.44,6.44,0,0,0,1021,336Z" transform="translate(-933.72 -332.78)"/><path class="cls-3" d="M943.06,452.92h-2v-27.2c0-4.53,4.27-8.21,9.53-8.21s9.53,3.68,9.53,8.21v2.85h-2v-2.85c0-3.42-3.38-6.21-7.53-6.21s-7.53,2.79-7.53,6.21v27.2Z" transform="translate(-933.72 -332.78)"/><path class="cls-2" d="M961.06,431.11h-3.88a0.47,0.47,0,0,1-.51-0.43l1-3.46a0.47,0.47,0,0,1,.51-0.43h1.93a0.47,0.47,0,0,1,.51.43l1,3.46A0.47,0.47,0,0,1,961.06,431.11Z" transform="translate(-933.72 -332.78)"/><path class="cls-3" d="M955.69,356.57C953.59,346.08,937.46,344,937.3,344l0.24-2c0.72,0.09,17.73,2.25,20.11,14.14Z" transform="translate(-933.72 -332.78)"/><path class="cls-2" d="M962.6,361.87l-7,2.28a0.9,0.9,0,0,1-1.17-.47l-0.28-6.79a0.9,0.9,0,0,1,.66-1.07l3.46-1.13a0.9,0.9,0,0,1,1.17.47l3.78,5.64A0.9,0.9,0,0,1,962.6,361.87Z" transform="translate(-933.72 -332.78)"/><line class="cls-3" x1="3.7" y1="4.18" x2="3.7" y2="120.13"/><rect class="cls-2" x="2.2" y="4.18" width="3" height="115.95"/><path class="cls-3" d="M1046.92,434v27.57a24.74,24.74,0,0,1-24.74,24.73H958.46a24.73,24.73,0,0,1-24.74-24.73V434h113.2Z" transform="translate(-933.72 -332.78)"/><path class="cls-4" d="M1016.29,332.78V336h1.51c0.18-1.44.83-2.51,1.61-2.51s1.42,1.07,1.6,2.51a6.44,6.44,0,0,1,.05.8c0,0.07,0,.13,0,0.2a6.2,6.2,0,0,1-.11,1c-0.24,1.23-.84,2.1-1.53,2.1s-1.3-.87-1.54-2.1h-1.58V454.37l6.58-1.89,8.42,1.89,10-1.46,6.07,1.46V332.78h-31.09Zm19.92,4.18a6.19,6.19,0,0,1-.11,1c-0.24,1.23-.84,2.1-1.54,2.1s-1.29-.87-1.53-2.1h-4.5c-0.24,1.23-.84,2.1-1.54,2.1s-1.29-.87-1.53-2.1a6.22,6.22,0,0,1-.11-1c0-.07,0-0.13,0-0.2a6.44,6.44,0,0,1,.05-0.8c0.18-1.44.82-2.51,1.6-2.51s1.43,1.07,1.61,2.51H1033c0.18-1.44.82-2.51,1.6-2.51s1.43,1.07,1.61,2.51a6.44,6.44,0,0,1,.05.8C1036.22,336.83,1036.21,336.9,1036.21,337Zm7.58,0a6.19,6.19,0,0,1-.11,1c-0.24,1.23-.84,2.1-1.54,2.1s-1.29-.87-1.53-2.1a6.22,6.22,0,0,1-.11-1c0-.07,0-0.13,0-0.2a6.44,6.44,0,0,1,.05-0.8c0.18-1.44.82-2.51,1.6-2.51s1.43,1.07,1.61,2.51a6.44,6.44,0,0,1,.05.8C1043.8,336.83,1043.79,336.9,1043.79,337Z" transform="translate(-933.72 -332.78)"/></svg>